<?xml version="1.0" standalone="no"?>
<!DOCTYPE svg PUBLIC "-//W3C//DTD SVG 20010904//EN"
 "http://www.w3.org/TR/2001/REC-SVG-20010904/DTD/svg10.dtd">
<svg version="1.0" xmlns="http://www.w3.org/2000/svg"
 width="300.000000pt" height="200.000000pt" viewBox="0 0 300.000000 200.000000"
 preserveAspectRatio="xMidYMid meet">

<g transform="translate(0.000000,200.000000) scale(0.100000,-0.100000)"
fill="#000000" stroke="none">
<path d="M0 1415 l0 -585 43 -1 c23 -1 52 -3 65 -4 25 -3 28 5 10 23 -16 16
-1 30 37 33 38 4 76 -16 69 -36 -5 -11 2 -15 25 -15 22 0 29 4 25 14 -6 15 29
40 40 29 3 -4 13 2 21 13 15 19 15 19 28 -1 6 -11 14 -29 17 -40 5 -18 17 -20
121 -25 l116 -5 -5 42 c-3 32 1 49 17 71 11 17 21 36 21 44 1 17 35 58 49 58
6 0 11 3 12 8 0 4 2 20 4 37 2 16 0 32 -6 36 -6 3 -7 23 -3 50 4 24 9 38 12
31 2 -6 10 -12 17 -12 18 0 38 65 33 110 -2 29 -7 35 -25 34 -13 0 -23 5 -23
12 0 8 6 11 15 8 10 -4 15 0 15 10 0 9 11 21 25 26 29 11 33 30 6 30 -10 0
-25 -10 -34 -22 -14 -21 -14 -16 -2 50 8 40 17 77 21 83 3 6 -3 5 -15 -3 -12
-7 -24 -21 -27 -30 -8 -26 -31 -22 -30 5 1 16 -4 21 -18 19 -24 -4 -36 14 -36
56 0 32 0 32 49 32 49 0 88 -21 76 -41 -10 -15 3 -11 67 23 33 17 63 40 66 50
4 18 19 23 56 19 11 -1 28 6 38 16 25 23 38 4 31 -46 -5 -36 -4 -37 53 -63 36
-16 84 -29 123 -32 59 -4 67 -2 115 29 28 18 60 48 70 66 31 53 99 119 123
119 16 0 23 -8 28 -30 6 -26 -3 -42 -71 -132 -107 -141 -111 -145 -187 -153
-35 -4 -83 -5 -107 -4 -24 2 -45 -1 -47 -6 -2 -7 12 -9 37 -7 43 4 53 -10 21
-30 -10 -6 -17 -17 -14 -24 8 -21 -38 -84 -62 -84 -13 0 -35 48 -35 77 0 28
-8 29 -27 6 -13 -16 -13 -16 -7 7 4 14 12 28 18 32 6 4 -16 7 -49 7 -33 -1
-51 -3 -40 -6 28 -7 43 -23 22 -23 -9 0 -17 -4 -17 -10 0 -5 9 -10 19 -10 28
0 33 -14 32 -86 0 -36 4 -64 9 -64 6 0 10 4 10 9 0 5 9 12 19 16 11 3 22 14
24 23 3 9 5 -1 6 -23 1 -51 -11 -70 -46 -70 -34 0 -52 -32 -89 -161 -25 -85
-25 -89 -7 -102 14 -12 14 -13 2 -9 -13 4 -16 -1 -15 -26 l2 -32 202 -9 202
-8 39 26 c37 26 67 71 53 79 -4 2 -2 3 5 1 6 -1 14 0 18 4 4 4 61 7 128 7 119
0 123 1 160 29 l37 28 83 -40 c46 -22 110 -63 143 -91 l59 -51 166 0 c91 0
301 -3 467 -7 l302 -6 0 315 c0 303 -1 316 -19 321 -13 3 -21 -1 -24 -14 -3
-11 -10 -19 -15 -19 -16 0 -20 34 -8 89 10 50 12 52 38 49 l28 -5 0 239 0 238
-540 0 c-366 0 -540 -3 -540 -10 0 -7 -6 -7 -19 0 -13 7 -331 10 -960 10
l-941 0 0 -585z m1075 293 c-4 -24 -11 -47 -15 -51 -7 -8 -5 18 6 71 8 40 16
23 9 -20z m843 -3 c3 -26 1 -27 -25 -22 -19 4 -36 0 -53 -13 -27 -21 -40 -25
-40 -12 0 5 11 14 24 20 18 8 22 16 19 35 -4 22 -2 24 34 22 33 -2 38 -6 41
-30z m-871 -22 c-3 -10 -5 -4 -5 12 0 17 2 24 5 18 2 -7 2 -21 0 -30z m743
-38 c11 -13 11 -18 0 -28 -7 -7 -10 -7 -7 -2 8 15 -9 39 -22 31 -6 -4 -8 -19
-5 -35 3 -16 1 -38 -5 -49 -8 -16 -6 -25 10 -46 24 -30 32 -32 54 -10 12 12
19 13 30 4 12 -10 11 -14 -6 -31 -10 -10 -19 -24 -19 -30 0 -6 -10 -9 -22 -7
-14 2 -36 23 -58 55 -44 66 -77 71 -110 18 -19 -31 -23 -33 -46 -23 -23 11
-24 12 -8 37 25 40 54 61 84 61 39 0 80 17 80 33 0 14 19 37 31 37 4 0 12 -7
19 -15z m120 -16 c0 -10 -7 -19 -15 -19 -8 0 -15 4 -15 8 0 5 -12 13 -27 19
-28 11 -28 11 5 6 21 -4 32 -1 32 6 0 7 5 9 10 6 6 -3 10 -15 10 -26z m383
-39 c9 -11 24 -20 32 -20 8 0 20 9 27 20 7 11 17 20 21 20 15 0 87 -61 87 -74
0 -27 -40 -54 -91 -61 -63 -9 -75 1 -93 78 -14 61 -11 69 17 37z m-1067 -28
c-18 -18 -31 -10 -23 12 4 10 13 13 22 9 15 -5 15 -7 1 -21z m618 -143 c-4 -7
-7 -25 -6 -41 1 -39 -6 -31 -13 15 -5 30 -3 37 10 37 10 0 13 -5 9 -11z m-104
-14 c0 -9 -9 -15 -21 -15 -18 0 -19 2 -9 15 7 8 16 15 21 15 5 0 9 -7 9 -15z
m60 -15 c0 -11 -4 -20 -10 -20 -5 0 -10 9 -10 20 0 11 5 20 10 20 6 0 10 -9
10 -20z m-278 -29 c24 -21 30 -33 22 -40 -7 -8 -17 -4 -34 14 -13 14 -32 25
-41 25 -12 0 -16 5 -13 15 9 23 30 18 66 -14z m-67 -21 c-4 -7 2 -9 19 -4 17
4 26 2 26 -6 0 -6 -5 -8 -11 -4 -6 3 -4 -7 5 -24 16 -32 34 -42 71 -42 14 0
25 -7 28 -20 6 -24 45 -27 53 -5 4 8 17 15 30 15 13 0 25 6 25 13 1 6 4 -1 8
-18 l6 -30 23 23 23 23 45 -22 c25 -12 43 -24 40 -27 -3 -2 -12 0 -19 7 -14
11 -47 5 -58 -11 -3 -5 -19 -11 -35 -14 -16 -3 -36 -7 -44 -9 -8 -3 -28 2 -44
10 -15 8 -35 15 -42 15 -8 0 -17 7 -20 15 -7 18 -70 39 -86 28 -19 -11 -38
-13 -38 -2 0 5 -6 9 -12 9 -33 1 -40 16 -22 53 10 21 22 37 26 37 5 0 6 -5 3
-10z m251 -16 c-9 -8 -16 -23 -16 -32 0 -10 -3 -13 -10 -6 -15 15 0 54 22 54
18 0 18 -1 4 -16z m102 -17 c14 0 16 -16 3 -35 -7 -11 -16 -11 -52 -1 -54 16
-51 13 -43 33 6 14 14 16 43 11 20 -4 42 -8 49 -8z m-1068 -51 c0 -19 -4 -38
-10 -41 -5 -3 -10 -2 -10 3 0 5 -3 24 -6 41 -5 24 -3 31 10 31 12 0 16 -9 16
-34z m1000 -6 c0 -5 -2 -10 -4 -10 -3 0 -8 5 -11 10 -3 6 -1 10 4 10 6 0 11
-4 11 -10z m-1622 -33 c12 -24 18 -27 45 -22 18 3 37 2 43 -2 15 -11 24 -101
11 -106 -27 -9 -69 7 -77 29 -7 19 -17 24 -43 24 -18 0 -38 5 -45 12 -13 13
-17 80 -5 92 16 16 58 0 71 -27z m2310 -17 c14 -38 -8 -71 -35 -54 -24 15 -28
39 -13 75 14 34 32 26 48 -21z m364 -42 c-4 -35 -6 -37 -34 -35 -22 2 -33 9
-40 26 -7 21 -6 22 7 11 13 -11 18 -10 30 6 8 10 15 26 15 35 0 9 3 19 7 23
12 11 20 -26 15 -66z m-82 36 c0 -8 -4 -12 -10 -9 -5 3 -10 13 -10 21 0 8 5
12 10 9 6 -3 10 -13 10 -21z m-2275 -94 c-3 -5 -11 -10 -16 -10 -6 0 -7 5 -4
10 3 6 11 10 16 10 6 0 7 -4 4 -10z"/>
<path d="M1780 1289 c0 -5 5 -7 10 -4 6 3 10 8 10 11 0 2 -4 4 -10 4 -5 0 -10
-5 -10 -11z"/>
<path d="M778 913 c7 -3 16 -2 19 1 4 3 -2 6 -13 5 -11 0 -14 -3 -6 -6z"/>
<path d="M1938 856 c-15 -21 -15 -23 3 -34 10 -7 28 -12 40 -12 28 0 59 -18
59 -35 0 -11 -11 -10 -57 6 -67 23 -78 21 -88 -18 -3 -15 -12 -31 -18 -35 -7
-5 -3 -8 11 -8 19 0 56 -13 70 -26 2 -1 -6 -15 -17 -31 -12 -16 -25 -53 -30
-83 -5 -30 -21 -86 -35 -125 -14 -38 -22 -73 -18 -77 4 -4 22 -11 40 -14 26
-5 32 -3 32 11 0 10 16 42 35 71 20 30 35 56 35 60 -1 4 3 10 8 13 14 9 62
107 78 160 18 62 9 89 -29 82 -5 -1 -6 2 -3 7 6 11 -1 21 -54 69 l-45 41 -17
-22z"/>
<path d="M680 797 c8 -9 29 -18 45 -21 17 -4 23 -3 15 0 -8 4 -28 13 -45 21
-27 14 -29 14 -15 0z"/>
<path d="M620 791 c0 -6 4 -13 10 -16 6 -3 7 1 4 9 -7 18 -14 21 -14 7z"/>
<path d="M1772 770 c-11 -18 -10 -21 15 -31 15 -5 36 -8 47 -6 18 3 16 6 -11
18 -18 7 -34 19 -35 26 -2 9 -7 7 -16 -7z"/>
<path d="M1 714 c0 -11 3 -14 6 -6 3 7 2 16 -1 19 -3 4 -6 -2 -5 -13z"/>
<path d="M887 693 c-4 -3 -7 -17 -7 -31 0 -17 4 -23 15 -18 9 3 15 0 15 -10 0
-8 -4 -12 -10 -9 -5 3 -10 -1 -10 -9 0 -9 7 -16 15 -16 21 0 20 59 0 66 -12 5
-13 10 -4 20 11 14 -1 20 -14 7z"/>
<path d="M840 674 c0 -3 5 -25 11 -50 8 -32 9 -48 1 -56 -8 -8 -7 -15 3 -24
32 -32 44 -6 26 52 -5 16 -12 41 -15 57 -4 15 -11 27 -16 27 -6 0 -10 -3 -10
-6z"/>
<path d="M1428 643 c0 -10 -1 -24 -1 -30 1 -7 -3 -13 -7 -13 -5 0 -11 -14 -15
-30 -4 -17 -13 -37 -22 -45 -17 -18 -44 -20 -40 -4 1 6 -4 14 -12 16 -10 4
-12 -3 -9 -31 l4 -36 -21 20 c-12 11 -27 20 -33 20 -7 0 -57 -45 -110 -100
-54 -55 -105 -100 -115 -100 -28 0 -19 -27 19 -57 l37 -28 15 24 c9 12 43 41
76 64 34 22 63 44 66 48 7 9 160 99 170 99 20 0 99 132 100 167 0 6 -15 14
-32 18 -18 4 -41 9 -50 11 -12 4 -19 -1 -20 -13z m2 -97 c0 -3 -4 -8 -10 -11
-5 -3 -10 -1 -10 4 0 6 5 11 10 11 6 0 10 -2 10 -4z"/>
<path d="M1550 650 c-13 -9 -13 -10 0 -10 8 0 22 5 30 10 13 9 13 10 0 10 -8
0 -22 -5 -30 -10z"/>
<path d="M780 630 c-9 -6 -10 -10 -3 -10 6 0 15 5 18 10 8 12 4 12 -15 0z"/>
<path d="M947 556 c-4 -27 -7 -67 -8 -90 -1 -44 -4 -41 -13 15 l-6 35 -58 -7
c-31 -4 -66 -8 -76 -8 -18 -1 -18 -2 -3 -19 9 -9 18 -30 21 -46 8 -42 47 -95
65 -88 31 10 71 44 71 57 0 8 17 19 39 25 53 14 59 38 25 89 -15 23 -30 41
-35 41 -4 0 -9 10 -11 23 -2 13 -7 2 -11 -27z"/>
<path d="M440 390 c13 -9 13 -11 0 -19 -9 -7 -19 -6 -29 2 -12 10 -14 9 -8 -6
4 -10 7 -25 7 -33 0 -8 7 -14 15 -14 8 0 15 6 15 14 0 7 6 19 14 26 18 14 10
40 -13 40 -14 0 -14 -2 -1 -10z"/>
<path d="M481 374 c-2 -32 21 -56 44 -48 19 8 18 8 -5 14 -15 3 -27 15 -31 30
-6 21 -7 22 -8 4z"/>
<path d="M745 306 c-22 -7 -39 -18 -37 -24 1 -7 -9 -12 -22 -12 -57 0 -147
-64 -130 -92 5 -7 9 -20 11 -28 3 -20 41 -50 64 -50 10 0 19 -4 19 -10 0 -6
-34 -10 -81 -10 -66 0 -88 4 -116 21 -19 12 -37 19 -40 16 -3 -3 -12 0 -19 8
-8 7 -19 16 -26 18 -10 4 -9 8 2 16 11 8 11 11 2 11 -16 0 11 55 30 63 7 3
-80 6 -194 6 l-208 1 0 -55 0 -55 73 -1 c39 -1 83 -2 97 -3 14 -1 44 -3 68 -4
23 -1 42 -6 42 -10 0 -5 -63 -6 -140 -4 l-140 4 0 -56 0 -56 400 0 c260 0 400
4 400 10 0 6 5 10 11 10 5 0 8 -4 4 -9 -3 -6 90 -10 232 -10 152 -1 233 2 223
8 -8 6 -11 14 -6 18 4 4 13 0 20 -10 15 -20 42 -23 49 -4 4 8 8 8 14 2 15 -19
40 -15 51 7 l11 23 7 -23 c6 -21 12 -23 63 -21 31 2 62 7 69 12 7 5 12 6 12 1
0 -11 368 -16 374 -5 7 10 5 10 -162 15 -78 2 -145 6 -149 10 -3 3 -12 -2 -20
-12 -8 -9 -12 -12 -8 -5 6 13 -20 19 -115 27 -30 3 -56 5 -57 6 -2 0 -3 3 -3
8 0 8 347 -5 590 -23 36 -3 175 -8 310 -11 234 -6 294 -8 563 -19 l117 -5 0
110 0 110 -217 -1 c-120 0 -209 -4 -198 -8 11 -5 26 -6 34 -3 9 3 12 1 7 -6
-9 -14 -95 -16 -116 -2 -11 7 -7 10 19 10 19 0 32 2 29 5 -9 9 -188 12 -194 4
-3 -5 22 -9 55 -9 34 0 61 -4 61 -10 0 -8 -25 -9 -162 -1 -10 1 -18 9 -18 19
0 9 -11 -7 -25 -35 -13 -29 -26 -53 -28 -53 -2 0 -4 14 -5 30 0 17 4 30 9 30
14 0 11 16 -10 41 l-18 23 -26 -21 c-23 -18 -25 -22 -12 -33 19 -16 19 -36 0
-44 -24 -9 -42 3 -48 33 -5 24 -10 28 -31 24 -14 -3 -27 -14 -30 -26 -6 -21
-7 -21 -17 -3 -8 13 -13 15 -19 6 -6 -9 -13 -9 -28 -1 -27 15 -45 14 -39 -1 2
-7 10 -12 16 -10 7 1 10 -2 7 -7 -3 -5 -23 -3 -47 5 -23 8 -51 12 -63 8 -20
-6 -21 -6 -2 9 18 13 13 14 -55 10 -51 -4 -71 -2 -64 5 6 6 26 12 45 15 34 4
34 4 -6 5 -29 2 -44 -3 -48 -13 -5 -13 -32 -15 -193 -11 -331 8 -353 10 -133
16 l215 6 -265 1 -265 2 -29 -47 c-17 -26 -29 -50 -28 -54 1 -5 -7 -8 -17 -8
-12 0 -21 8 -24 22 l-4 23 -2 -22 c-1 -28 -27 -30 -41 -3 -8 14 -8 20 0 20 7
0 9 8 5 21 -4 12 -8 28 -9 35 -3 18 -16 31 -16 15 0 -7 -5 -9 -12 -5 -6 4 -34
7 -62 6 -28 0 -84 2 -124 5 l-72 5 39 22 c50 28 89 55 76 55 -5 0 -28 -6 -50
-13z m1490 -76 c3 -5 -1 -10 -10 -10 -9 0 -13 5 -10 10 3 6 8 10 10 10 2 0 7
-4 10 -10z m672 -40 c16 -10 16 -10 -3 -5 -11 3 -67 6 -125 7 -62 1 -94 4 -79
9 35 10 186 2 207 -11z m-237 6 c0 -2 -7 -6 -15 -10 -8 -3 -15 -1 -15 4 0 6 7
10 15 10 8 0 15 -2 15 -4z m-865 -16 c8 -13 -55 -13 -75 0 -11 7 -4 10 27 10
23 0 45 -4 48 -10z m65 -10 c12 -8 11 -10 -7 -10 -13 0 -23 5 -23 10 0 13 11
13 30 0z m-1480 -66 c0 -2 -24 -3 -52 -3 -43 1 -47 3 -23 8 28 6 75 3 75 -5z
m685 -19 c185 -7 190 -7 190 -20 0 -11 2 -11 -170 -2 -369 20 -404 23 -413 32
-4 4 47 4 113 1 66 -3 192 -8 280 -11z m311 -20 c18 -13 17 -14 -16 -15 -19 0
-46 3 -60 7 l-25 7 25 7 c40 11 55 10 76 -6z m-256 -40 c0 -8 -7 -15 -15 -15
-13 0 -14 3 -3 15 16 18 18 18 18 0z m60 -5 c0 -5 -4 -10 -10 -10 -5 0 -10 5
-10 10 0 6 5 10 10 10 6 0 10 -4 10 -10z m265 0 c3 -5 -1 -10 -10 -10 -9 0
-13 5 -10 10 3 6 8 10 10 10 2 0 7 -4 10 -10z m-742 -7 c-7 -2 -19 -2 -25 0
-7 3 -2 5 12 5 14 0 19 -2 13 -5z"/>
<path d="M2124 303 c3 -8 2 -11 -3 -8 -5 3 -12 1 -15 -4 -12 -19 35 -23 54 -6
24 22 19 33 -15 33 -19 0 -25 -5 -21 -15z"/>
<path d="M1871 294 c0 -11 3 -14 6 -6 3 7 2 16 -1 19 -3 4 -6 -2 -5 -13z"/>
<path d="M1902 255 c0 -16 2 -22 5 -12 2 9 2 23 0 30 -3 6 -5 -1 -5 -18z"/>
<path d="M1920 233 c0 -12 5 -25 10 -28 13 -8 13 15 0 35 -8 12 -10 11 -10 -7z"/>
<path d="M1850 220 c0 -5 5 -10 10 -10 6 0 10 5 10 10 0 6 -4 10 -10 10 -5 0
-10 -4 -10 -10z"/>
<path d="M1983 223 c15 -2 37 -2 50 0 12 2 0 4 -28 4 -27 0 -38 -2 -22 -4z"/>
<path d="M520 189 c0 -5 5 -7 10 -4 6 3 10 8 10 11 0 2 -4 4 -10 4 -5 0 -10
-5 -10 -11z"/>
<path d="M994 175 c-3 -8 -4 -20 -2 -27 3 -7 7 -1 10 15 6 29 1 36 -8 12z"/>
<path d="M1950 10 c0 -5 5 -10 10 -10 6 0 10 5 10 10 0 6 -4 10 -10 10 -5 0
-10 -4 -10 -10z"/>
<path d="M1990 9 c0 -5 39 -9 87 -9 47 0 84 2 82 4 -10 8 -169 13 -169 5z"/>
<path d="M2208 3 c6 -2 18 -2 25 0 6 3 1 5 -13 5 -14 0 -19 -2 -12 -5z"/>
</g>
</svg>
