<?xml version="1.0" standalone="no"?>
<!DOCTYPE svg PUBLIC "-//W3C//DTD SVG 20010904//EN"
 "http://www.w3.org/TR/2001/REC-SVG-20010904/DTD/svg10.dtd">
<svg version="1.0" xmlns="http://www.w3.org/2000/svg"
 width="780.000000pt" height="520.000000pt" viewBox="0 0 780.000000 520.000000"
 preserveAspectRatio="xMidYMid meet">

<g transform="translate(0.000000,520.000000) scale(0.100000,-0.100000)"
fill="#000000" stroke="none">
<path d="M0 3598 c1 -1200 3 -1598 12 -1583 6 11 14 22 17 25 4 3 14 17 24 33
23 36 137 110 212 139 33 12 63 27 67 33 4 5 8 57 8 115 0 58 5 123 11 145 6
22 10 74 9 117 -2 87 9 114 65 168 36 35 37 35 125 35 104 -1 137 -17 158 -80
7 -21 19 -43 27 -49 8 -6 27 -34 42 -62 16 -28 45 -80 66 -116 20 -36 37 -76
37 -90 0 -23 36 -68 55 -68 5 0 16 -6 24 -14 9 -8 40 -26 69 -41 28 -15 52
-30 52 -34 0 -3 9 -12 21 -19 18 -11 23 -11 33 4 12 16 16 15 54 -16 23 -18
39 -37 36 -41 -3 -5 3 -9 13 -9 10 0 49 -24 87 -53 77 -58 104 -101 137 -215
15 -52 31 -84 56 -110 20 -20 47 -55 61 -77 22 -35 26 -37 32 -19 9 23 107
124 121 124 5 0 9 8 10 18 0 9 9 -10 20 -43 11 -33 23 -67 26 -75 4 -8 7 -28
8 -45 0 -16 4 -41 9 -55 l7 -25 -20 25 c-22 27 -27 21 -10 -13 l10 -22 -19 22
-19 22 -41 -26 c-53 -34 -69 -87 -76 -252 -4 -102 -9 -128 -24 -145 -10 -12
-33 -45 -51 -73 -29 -46 -32 -59 -28 -105 2 -29 11 -78 21 -108 20 -68 33
-244 19 -262 -6 -7 -16 -31 -23 -53 -7 -22 -16 -44 -20 -50 -4 -5 -10 -22 -14
-37 -5 -23 -12 -28 -35 -28 -48 0 -61 -9 -60 -44 1 -41 22 -107 34 -108 18 -1
44 57 44 102 1 33 4 41 11 30 9 -13 11 -13 20 0 6 10 10 11 10 3 0 -14 48 -17
87 -7 26 7 37 35 68 174 22 96 101 403 174 675 27 101 65 291 75 375 2 19 3
-19 2 -85 -2 -80 -9 -138 -20 -175 -10 -30 -37 -116 -61 -190 -55 -170 -58
-182 -104 -406 -39 -184 -41 -231 -7 -104 10 36 36 123 58 193 22 70 59 194
83 275 31 104 44 136 44 111 1 -48 -17 -142 -40 -213 -22 -65 -19 -84 6 -36 9
18 19 30 22 27 6 -7 -27 -77 -37 -77 -5 0 -6 -9 -3 -20 3 -11 1 -20 -5 -20
-10 0 -52 -127 -70 -210 -6 -25 -17 -70 -25 -100 -9 -30 -14 -56 -12 -58 2 -2
36 62 75 143 74 149 99 180 62 78 -11 -32 -20 -65 -20 -73 0 -8 -13 -45 -31
-82 -17 -36 -31 -71 -31 -77 0 -6 -4 -11 -10 -11 -5 0 -10 -7 -10 -15 0 -25
12 -17 67 43 29 31 52 52 53 45 0 -7 -20 -35 -45 -63 -37 -42 -105 -155 -105
-175 0 -16 35 0 88 40 75 56 99 58 47 4 -41 -42 -39 -45 24 -21 10 4 13 1 8
-12 -4 -10 -7 -19 -7 -21 0 -2 -8 -1 -19 2 -10 2 -24 -2 -32 -9 -16 -17 -96
-39 -114 -32 -7 3 -15 -2 -18 -10 -4 -9 1 -17 11 -20 58 -16 83 -16 130 2 43
17 50 17 48 4 -2 -9 -9 -19 -17 -23 -16 -8 -184 -39 -212 -39 -38 0 -97 -25
-97 -42 0 -9 4 -19 9 -23 5 -3 13 -20 17 -37 l7 -32 16 37 c23 54 44 50 26 -5
-8 -24 -21 -70 -28 -103 -8 -33 -18 -68 -22 -77 -7 -17 28 -18 649 -18 l656 0
0 135 c0 74 -5 155 -12 180 -14 52 -4 69 23 37 17 -22 47 -23 34 -1 -4 5 1 9
9 9 12 0 13 -5 4 -31 -6 -17 -13 -26 -17 -21 -3 6 -6 -61 -6 -149 l0 -159 193
0 c114 0 201 4 213 10 13 7 19 7 19 0 0 -5 14 -10 32 -10 30 0 31 0 13 20 -10
11 -26 20 -37 20 -25 0 -23 18 4 22 25 4 32 17 18 38 -9 13 -11 13 -20 0 -5
-8 -10 -11 -10 -6 0 4 -9 -2 -21 -15 l-21 -24 6 25 c3 14 6 28 6 33 0 14 79 7
114 -11 32 -15 36 -21 36 -59 l0 -43 264 0 264 0 12 34 c12 38 40 66 89 90 46
22 66 20 93 -6 32 -32 78 -94 78 -107 0 -8 74 -11 230 -11 260 0 246 -5 214
81 -31 86 -68 383 -68 549 0 82 4 113 18 140 30 57 46 70 86 70 20 0 42 6 48
12 8 8 15 9 20 3 4 -6 23 -12 42 -13 39 -4 65 -16 95 -42 24 -21 58 -28 181
-35 80 -6 99 -3 170 20 43 15 84 31 91 37 25 20 118 13 171 -13 61 -30 72 -24
72 41 0 25 7 65 16 90 22 62 35 132 40 217 5 63 2 78 -21 123 -67 133 -86 295
-44 384 26 55 80 119 116 137 15 8 75 41 132 74 62 35 123 62 150 66 144 24
171 41 171 111 0 42 -14 78 -31 78 -6 0 -42 -16 -81 -36 -63 -31 -75 -34 -99
-24 -15 7 -35 20 -44 30 -29 32 -55 122 -55 190 0 87 52 209 112 260 22 19 59
53 82 75 66 64 94 78 153 78 35 0 59 -6 71 -17 10 -9 23 -16 29 -16 20 0 55
-49 64 -91 13 -57 -1 -88 -72 -159 -65 -65 -81 -108 -56 -156 8 -16 17 -45 21
-64 4 -25 15 -40 36 -52 16 -9 32 -28 36 -42 3 -14 16 -28 27 -32 12 -3 31
-14 42 -24 11 -9 56 -36 99 -59 87 -46 118 -68 189 -139 82 -80 116 -164 124
-306 6 -107 3 -116 -49 -116 -15 0 -30 -4 -33 -10 -11 -18 -103 -11 -146 10
-33 17 -50 20 -99 14 -33 -4 -65 -13 -71 -20 -6 -8 -17 -14 -23 -14 -13 0 -39
-27 -56 -60 -6 -12 -14 -19 -17 -16 -7 7 -43 -38 -43 -53 0 -6 -4 -11 -10 -11
-17 0 -39 -96 -30 -132 9 -34 8 -101 -2 -128 -3 -8 -11 -34 -18 -57 -7 -23
-19 -44 -26 -47 -8 -3 -14 -10 -14 -16 0 -7 -17 -28 -39 -48 -48 -46 -77 -131
-67 -199 5 -39 -2 -97 -20 -155 -4 -14 1 -18 22 -18 19 0 39 12 65 40 21 22
42 40 46 40 17 0 112 96 134 135 12 22 36 65 53 95 l31 55 -3 148 c-2 91 1
162 8 183 7 20 35 55 68 84 52 46 60 50 107 50 39 0 56 5 70 20 26 29 53 26
61 -7 3 -16 12 -42 20 -60 9 -19 14 -66 14 -126 0 -74 3 -96 15 -100 28 -11
65 -85 71 -144 3 -32 17 -103 31 -158 17 -68 23 -113 19 -145 -3 -25 -2 -83 2
-130 8 -98 -1 -129 -40 -137 -19 -4 -31 -16 -41 -42 -20 -47 -60 -85 -85 -79
-17 5 -21 -2 -31 -52 -12 -60 -5 -97 23 -126 22 -21 806 -21 806 0 0 8 -7 21
-15 30 -8 8 -15 23 -15 34 0 21 33 32 101 32 27 0 39 4 39 14 0 9 15 17 40 21
l40 7 0 2524 0 2524 -3900 0 -3900 0 0 -1602z m2857 966 c-3 -3 -12 -4 -19 -1
-8 3 -5 6 6 6 11 1 17 -2 13 -5z m53 -14 c0 -5 -7 -7 -15 -4 -8 4 -15 8 -15
10 0 2 7 4 15 4 8 0 15 -4 15 -10z m-295 -90 c3 -5 13 -6 21 -3 9 3 20 0 25
-8 12 -20 11 -31 -3 -23 -6 4 -8 3 -5 -3 4 -6 17 -8 31 -6 13 3 27 0 30 -6 4
-6 2 -9 -6 -6 -8 3 -18 -6 -25 -25 -9 -25 -9 -30 3 -30 9 0 13 4 9 9 -3 5 -1
12 5 16 6 4 10 -5 10 -19 0 -18 5 -26 17 -26 15 0 15 -2 -1 -19 -11 -12 -15
-24 -9 -33 12 -19 45 -19 61 0 13 16 13 16 8 -1 -3 -10 -6 -23 -6 -28 0 -6 -9
-8 -20 -4 -23 7 -63 -12 -55 -26 4 -5 11 -7 16 -4 5 4 9 4 9 2 0 -3 -15 -14
-32 -26 -18 -11 -42 -26 -53 -33 -30 -20 -44 -41 -45 -67 0 -27 26 -61 47 -61
7 0 13 -4 13 -9 0 -4 12 -7 28 -4 23 3 24 2 7 -6 -17 -8 -18 -10 -2 -10 23 -1
22 -21 -1 -21 -11 0 -33 7 -51 16 -21 10 -41 13 -59 9 -41 -12 -62 -13 -62 -3
0 5 -5 6 -10 3 -6 -3 -14 4 -19 17 -11 26 -13 21 -16 -37 -2 -22 0 -44 4 -50
14 -20 -2 -105 -20 -105 -5 0 -9 14 -9 30 0 27 -3 30 -32 30 l-33 1 26 14 c29
16 47 47 30 53 -6 2 -9 8 -5 13 3 5 -2 9 -10 9 -25 0 -19 36 9 54 18 12 24 23
20 35 -3 10 1 24 10 31 8 6 17 27 21 46 3 19 10 34 15 34 5 0 9 8 9 18 0 13
13 22 50 31 27 7 52 17 55 22 4 5 -2 6 -11 2 -12 -5 -15 -3 -9 6 6 10 2 10
-16 0 -26 -15 -109 -20 -109 -7 0 4 10 8 23 8 16 0 18 3 8 9 -11 7 -9 10 8 16
12 3 18 11 15 17 -4 6 -10 5 -15 -3 -7 -11 -9 -10 -9 4 0 10 -8 17 -20 17 -27
0 -26 18 2 22 12 2 23 9 24 16 1 7 0 8 -3 2 -5 -12 -23 -4 -23 11 0 5 7 9 16
9 8 0 13 4 10 9 -8 12 23 45 59 63 37 20 42 20 50 8z m124 -35 c0 -5 -6 -1
-14 9 -8 11 -15 24 -15 30 0 5 7 1 15 -10 8 -10 14 -23 14 -29z m231 35 c0 -5
-4 -10 -10 -10 -5 0 -10 5 -10 10 0 6 5 10 10 10 6 0 10 -4 10 -10z m132 -47
c21 -20 38 -43 38 -50 0 -7 4 -13 8 -13 5 0 16 -26 25 -57 20 -70 30 -193 17
-193 -6 0 -10 4 -10 10 0 12 -57 37 -105 46 -25 4 -35 11 -35 25 0 11 -4 19
-10 19 -5 0 -10 7 -10 16 0 14 -3 14 -15 4 -19 -16 -20 3 -1 23 9 8 11 19 6
27 -5 8 -6 18 -3 22 2 5 -1 15 -7 23 -7 8 -9 15 -4 15 5 0 2 5 -6 10 -13 8
-12 10 3 10 15 0 17 6 11 38 -4 20 -12 40 -17 44 -7 4 -7 11 2 21 18 22 67 5
113 -40z m752 34 c9 -14 6 -26 -12 -59 -23 -43 -22 -65 2 -33 12 17 18 18 40
7 26 -12 31 -28 20 -69 -5 -18 -10 -21 -25 -13 -20 11 -22 6 -33 -72 -4 -36
-4 -36 28 -31 l32 5 13 -83 c7 -46 15 -95 17 -109 5 -24 5 -24 -10 -6 -8 10
-18 43 -22 73 l-6 54 -24 -48 c-13 -27 -21 -37 -19 -23 3 14 1 32 -5 40 -8 13
-14 10 -35 -15 -13 -16 -24 -35 -25 -41 0 -6 -16 -33 -35 -60 -19 -27 -35 -55
-35 -61 0 -7 -4 -13 -10 -13 -5 0 -10 4 -10 9 0 18 30 80 53 107 54 65 75 125
73 209 -1 56 -2 60 -23 57 -19 -3 -23 2 -23 23 0 14 5 35 10 46 8 15 7 19 -4
19 -24 0 -46 -11 -46 -24 0 -6 -12 -12 -26 -12 -23 -2 -25 1 -18 29 10 49 41
90 76 103 43 16 68 13 82 -9z m-1064 -47 c0 -5 -4 -10 -10 -10 -5 0 -10 5 -10
10 0 6 5 10 10 10 6 0 10 -4 10 -10z m35 -10 c3 -5 -1 -10 -10 -10 -9 0 -13 5
-10 10 3 6 8 10 10 10 2 0 7 -4 10 -10z m-75 -10 c0 -5 -2 -10 -4 -10 -3 0 -8
5 -11 10 -3 6 -1 10 4 10 6 0 11 -4 11 -10z m37 -15 c0 -8 -9 -15 -19 -15 -16
0 -17 2 -6 15 17 19 25 19 25 0z m90 -21 c-3 -3 -12 -4 -19 -1 -8 3 -5 6 6 6
11 1 17 -2 13 -5z m16 -26 c-5 -7 -8 -23 -7 -35 0 -13 -2 -23 -6 -23 -4 0 -6
15 -5 33 3 39 3 37 16 37 7 0 8 -4 2 -12z m-35 -15 c18 -18 15 -23 -15 -22
-16 0 -22 3 -14 6 10 4 8 9 -10 19 l-24 14 25 -3 c14 -1 31 -7 38 -14z m857
-105 c-8 -34 -19 -65 -23 -68 -8 -5 -22 -30 -59 -100 -13 -25 -39 -64 -58 -88
-38 -48 -44 -65 -18 -55 11 4 14 3 9 -5 -4 -6 -9 -27 -11 -47 -4 -25 -16 -45
-40 -66 -29 -26 -47 -59 -31 -59 16 0 36 14 36 25 0 11 39 29 47 22 1 -2 0
-19 -3 -38 -5 -32 -13 -39 -68 -67 -107 -56 -170 -94 -189 -113 -10 -10 -22
-19 -28 -19 -14 0 -129 -118 -129 -133 0 -7 -9 -18 -20 -25 -11 -7 -20 -23
-20 -37 0 -18 -9 -28 -35 -41 -19 -9 -35 -20 -35 -25 0 -4 -13 -16 -30 -26
-16 -9 -30 -22 -30 -28 -1 -14 -47 -65 -59 -65 -5 0 -11 5 -13 11 -4 13 -56
-9 -143 -60 -27 -16 -69 -32 -93 -36 -43 -6 -64 -20 -190 -121 -28 -23 -72
-52 -98 -64 -26 -13 -63 -40 -83 -62 -20 -21 -40 -38 -44 -38 -7 0 -19 -9 -51
-37 -7 -6 -41 -14 -76 -17 -56 -6 -62 -4 -67 14 -3 11 -11 20 -18 20 -19 0
-129 52 -137 64 -9 14 -50 14 -61 1 -4 -6 -10 0 -13 13 -4 12 -13 22 -20 22
-8 0 -14 10 -14 23 0 18 -2 19 -10 7 -5 -8 -10 -36 -10 -61 0 -26 -7 -60 -15
-75 -21 -41 -19 -54 10 -54 21 0 25 -5 25 -27 -1 -26 -2 -27 -14 -10 -8 10
-18 19 -23 19 -11 2 -103 68 -104 76 -1 4 -2 41 -4 82 -2 64 -25 174 -43 204
-8 14 -3 175 7 215 5 20 12 49 15 64 8 33 87 122 127 142 14 8 60 17 102 21
43 4 77 10 77 14 0 4 12 12 26 19 22 10 26 9 21 -3 -3 -8 -3 -17 1 -19 4 -2 1
-2 -5 -1 -7 2 -16 -3 -21 -11 -4 -9 -25 -16 -50 -17 -27 -1 -38 -4 -30 -10 10
-6 10 -8 1 -8 -7 0 -13 -5 -13 -10 0 -6 7 -7 17 -1 24 12 87 31 101 31 7 0 12
-4 12 -10 0 -5 -5 -10 -11 -10 -15 0 -120 -52 -115 -57 2 -3 19 2 38 10 48 22
86 29 93 17 4 -6 -8 -13 -26 -17 l-32 -6 35 -18 c51 -26 84 -71 92 -123 4 -26
14 -58 22 -74 13 -26 18 -52 10 -52 -3 0 -17 5 -31 10 -23 9 -26 8 -21 -5 4
-12 -2 -15 -29 -15 -19 0 -38 -6 -42 -13 -4 -7 -28 -27 -52 -45 -25 -18 -41
-32 -36 -32 5 0 16 7 25 15 24 22 86 31 88 14 5 -45 16 -86 26 -99 7 -8 18
-27 26 -42 7 -16 19 -28 27 -28 7 0 12 -6 11 -12 -2 -7 6 -14 17 -15 13 -2 28
9 45 32 14 19 32 35 40 35 26 0 90 50 90 69 0 14 5 18 19 14 23 -6 51 21 52
50 0 19 1 19 7 4 7 -15 14 -13 70 23 34 23 66 39 70 36 5 -3 23 4 42 15 24 15
42 19 66 15 18 -4 35 -2 39 4 9 15 45 12 51 -4 8 -21 37 -13 49 13 6 13 18 21
30 20 27 -2 65 11 65 22 0 5 11 15 25 21 35 16 31 28 -5 18 -17 -5 -28 -5 -25
0 3 5 1 11 -5 15 -5 3 -10 12 -10 18 0 7 7 4 14 -5 16 -22 22 -22 30 -2 3 9 2
12 -5 9 -5 -4 -15 -2 -22 4 -14 11 -31 3 -40 -19 -4 -12 -6 -12 -6 2 -1 11 22
32 60 55 34 21 75 50 92 66 16 15 35 27 42 27 7 0 18 7 26 16 10 13 10 17 -2
25 -10 7 -6 8 12 4 29 -7 102 40 246 157 81 66 107 103 123 173 6 28 24 71 41
96 34 53 59 131 68 209 5 45 10 57 29 65 18 8 22 16 19 35 -11 54 38 92 80 65
21 -14 27 -15 34 -4 14 22 11 -5 -6 -55 -8 -24 -33 -74 -55 -112 -21 -37 -37
-71 -34 -75 9 -15 32 2 45 34 7 18 23 49 36 69 24 39 45 95 59 158 6 28 9 30
12 13 2 -12 -4 -50 -13 -85z m-894 42 c6 0 7 -4 4 -10 -3 -5 2 -9 12 -8 37 3
63 -2 63 -13 0 -6 -29 -9 -80 -8 -46 1 -77 6 -74 11 3 5 12 7 19 4 17 -6 35
13 36 39 1 16 2 17 6 3 2 -10 9 -18 14 -18z m127 -31 c1 -31 -10 -33 -14 -2
-3 15 3 33 10 33 2 0 3 -14 4 -31z m37 -28 c5 -17 4 -22 -6 -19 -8 3 -15 18
-17 34 -4 33 11 24 23 -15z m788 -18 c-6 -15 -16 -46 -23 -68 -7 -22 -16 -42
-20 -45 -3 -3 -19 -30 -34 -60 -47 -93 -69 -130 -78 -130 -4 0 5 24 21 53 69
124 111 212 111 229 0 23 19 62 27 54 3 -3 1 -18 -4 -33z m-1428 -43 c3 -5 1
-10 -4 -10 -6 0 -11 5 -11 10 0 6 2 10 4 10 3 0 8 -4 11 -10z m350 -40 c3 -5
-1 -10 -10 -10 -9 0 -13 5 -10 10 3 6 8 10 10 10 2 0 7 -4 10 -10z m115 -6 c0
-8 -5 -12 -10 -9 -6 4 -8 11 -5 16 9 14 15 11 15 -7z m-75 -24 c3 -6 -1 -7 -9
-4 -18 7 -21 14 -7 14 6 0 13 -4 16 -10z m269 -45 c7 -27 26 -34 26 -10 0 20
14 19 31 -1 19 -23 51 -33 72 -22 34 18 71 -35 48 -71 -7 -11 -13 -11 -32 -1
-13 7 -27 18 -31 24 -6 8 -8 7 -8 -1 0 -7 6 -16 14 -20 10 -6 11 -15 5 -31
-10 -26 -30 -24 -87 10 -22 14 -47 19 -80 17 -82 -4 -137 0 -126 11 5 5 24 6
47 1 23 -6 39 -5 43 1 11 17 -14 32 -54 33 -30 0 -37 4 -38 20 -1 29 7 39 17
24 6 -10 9 -11 9 -1 0 6 5 12 10 12 6 0 10 -7 10 -15 0 -16 72 -55 102 -55 20
0 23 12 9 38 -4 9 -11 32 -15 51 -5 28 -4 32 8 22 8 -7 17 -23 20 -36z m-259
15 c3 -5 -1 -10 -10 -10 -9 0 -13 5 -10 10 3 6 8 10 10 10 2 0 7 -4 10 -10z
m390 -19 c-3 -6 -11 -11 -17 -11 -6 0 -6 6 2 15 14 17 26 13 15 -4z m706 -18
c-8 -15 -10 -15 -11 -2 0 17 10 32 18 25 2 -3 -1 -13 -7 -23z m-1501 3 c0 -8
9 -21 19 -28 14 -10 18 -21 14 -41 -4 -22 -8 -25 -19 -16 -8 7 -12 20 -9 30 4
11 0 26 -9 35 -18 18 -21 34 -6 34 6 0 10 -6 10 -14z m485 -6 c3 -5 1 -10 -4
-10 -6 0 -11 5 -11 10 0 6 2 10 4 10 3 0 8 -4 11 -10z m85 0 c0 -5 -2 -10 -4
-10 -3 0 -8 5 -11 10 -3 6 -1 10 4 10 6 0 11 -4 11 -10z m-494 -47 c-9 -9 -36
18 -36 35 0 12 5 11 21 -7 12 -12 18 -25 15 -28z m360 15 c-1 -26 -30 -36 -51
-18 -16 13 -21 35 -6 26 7 -5 39 3 57 13 1 1 1 -9 0 -21z m1180 -10 c3 -13 14
-41 24 -63 10 -22 21 -57 25 -78 5 -27 21 -51 57 -85 27 -26 56 -60 63 -77 18
-41 57 -79 172 -171 105 -84 127 -105 167 -157 41 -54 206 -387 206 -416 -1
-24 -2 -23 -24 14 -13 22 -35 54 -48 70 -14 17 -36 53 -49 80 -30 63 -90 144
-106 145 -7 0 -13 6 -13 13 0 16 -37 51 -62 60 -10 4 -18 11 -18 17 0 5 -5 10
-10 10 -6 0 -48 39 -93 86 l-81 86 -18 -22 c-10 -12 -22 -18 -29 -14 -7 4 -9
3 -5 -4 3 -6 2 -13 -3 -16 -5 -4 -12 8 -16 25 -4 17 -13 33 -21 36 -8 3 -14
16 -14 29 0 17 -4 22 -15 18 -19 -8 -19 5 0 30 20 27 19 43 -4 49 -12 3 -20
17 -25 48 -7 45 -32 131 -47 161 -8 15 -39 129 -39 142 0 16 19 3 26 -16z
m-1088 -96 c12 -2 22 -10 22 -19 0 -12 3 -13 14 -4 8 7 16 8 19 4 6 -10 -19
-59 -27 -55 -4 1 -20 -5 -36 -13 -27 -14 -45 -5 -20 10 5 3 6 13 3 21 -4 12
-8 12 -13 4 -6 -9 -13 -7 -27 7 -20 20 -19 32 6 70 l15 22 11 -22 c6 -12 21
-23 33 -25z m-425 -16 c11 -11 15 -21 10 -25 -6 -3 -13 -16 -17 -28 -4 -13
-14 -23 -22 -23 -8 0 -12 4 -9 10 3 6 -1 7 -9 4 -9 -3 -16 -1 -16 5 0 6 4 11
8 11 12 0 14 58 2 65 -6 3 -10 -4 -10 -17 0 -13 -5 -30 -10 -38 -7 -11 -10 -2
-10 32 l0 46 32 -11 c18 -7 41 -20 51 -31z m1347 -62 c-7 -19 -17 -33 -23 -31
-14 5 -12 43 5 75 18 36 33 1 18 -44z m-772 50 c34 -7 48 -37 34 -74 l-8 -21
-23 21 c-13 11 -32 20 -43 20 -15 0 -38 34 -38 56 0 6 43 5 78 -2z m-643 -64
c3 -5 1 -10 -4 -10 -6 0 -11 5 -11 10 0 6 2 10 4 10 3 0 8 -4 11 -10z m1385
-37 c0 -5 -4 -15 -10 -23 -11 -18 -25 -7 -17 15 6 15 27 21 27 8z m67 -55 c-2
-13 -4 -3 -4 22 0 25 2 35 4 23 2 -13 2 -33 0 -45z m-917 7 c23 -8 56 -15 72
-15 43 0 30 -25 -14 -26 -34 -1 -63 9 -118 41 -24 14 -24 15 -4 15 12 0 41 -7
64 -15z m-538 -153 c-9 -24 -45 -9 -54 23 -4 18 -4 31 2 33 6 2 10 7 10 12 0
4 8 25 17 46 l17 39 7 -70 c3 -38 4 -76 1 -83z m-158 67 c14 -7 27 -18 31 -27
4 -12 -1 -13 -26 -8 -17 3 -42 6 -55 6 -13 0 -24 4 -24 8 0 7 27 25 47 31 1 1
13 -4 27 -10z m1608 -60 c-17 -30 -33 -69 -37 -87 -7 -36 -22 -47 -77 -57 -36
-7 -66 -37 -73 -74 -2 -9 -4 -16 -5 -16 -1 0 -3 -10 -4 -21 -3 -27 -32 -58
-46 -49 -14 9 -12 43 3 52 8 4 17 24 20 43 3 19 3 29 0 23 -7 -20 -23 -15 -17
5 4 11 -1 9 -15 -8 -14 -16 -19 -19 -15 -7 3 9 1 17 -5 17 -6 0 -11 -4 -11
-10 0 -5 -5 -10 -10 -10 -7 0 -7 6 0 20 14 26 0 25 -30 -2 -18 -17 -22 -18
-17 -5 3 9 2 17 -4 17 -6 0 -9 7 -6 14 4 10 1 13 -8 10 -7 -3 -16 -15 -20 -27
l-8 -22 -4 23 c-3 14 -10 22 -18 18 -7 -2 -16 -2 -19 1 -10 10 25 43 45 43 21
0 112 -23 152 -39 16 -6 35 -11 43 -11 16 0 144 128 144 145 0 13 61 78 67 71
2 -2 -9 -28 -25 -57z m-1684 22 c14 -8 -30 -19 -108 -27 l-35 -3 32 12 c17 7
35 15 39 20 10 10 56 9 72 -2z m849 -113 c-3 -7 -5 -2 -5 12 0 14 2 19 5 13 2
-7 2 -19 0 -25z m-27 6 c0 -8 -5 -12 -10 -9 -6 4 -8 11 -5 16 9 14 15 11 15
-7z m-54 -30 c-4 -9 -9 -15 -11 -12 -3 3 -3 13 1 22 4 9 9 15 11 12 3 -3 3
-13 -1 -22z m882 -136 c18 -10 39 -18 47 -18 7 0 16 -4 19 -9 3 -4 -12 -7 -34
-6 -22 1 -37 -2 -34 -6 3 -5 1 -9 -5 -9 -5 0 -13 5 -16 11 -4 6 -13 8 -21 5
-8 -3 -11 0 -7 10 3 9 -2 14 -16 14 -23 0 -29 25 -8 33 14 5 31 0 75 -25z
m-488 3 c0 -6 -4 -13 -10 -16 -5 -3 -10 1 -10 9 0 9 5 16 10 16 6 0 10 -4 10
-9z m-510 -15 c0 -2 -9 -6 -20 -9 -11 -3 -18 -1 -14 4 5 9 34 13 34 5z m-279
-77 c32 -34 36 -49 15 -49 -19 0 -70 76 -60 91 6 10 9 10 12 1 2 -6 17 -26 33
-43z m116 7 c-2 -5 -12 -12 -23 -17 -15 -5 -24 -2 -33 13 -11 17 -10 18 9 8
18 -10 20 -8 20 17 1 27 1 27 15 8 9 -10 14 -23 12 -29z m90 -12 c-2 -2 -12
-2 -21 2 -15 6 -15 7 1 20 15 11 19 10 21 -2 2 -9 2 -18 -1 -20z m1045 14 c-7
-7 -12 -8 -12 -2 0 6 3 14 7 17 3 4 9 5 12 2 2 -3 -1 -11 -7 -17z m203 8 c88
-20 117 -33 113 -53 -4 -24 -53 -35 -123 -28 -126 11 -172 39 -126 77 27 21
54 22 136 4z m-1608 -83 c-3 -10 -5 -4 -5 12 0 17 2 24 5 18 2 -7 2 -21 0 -30z
m797 -132 c-8 -9 -22 12 -17 26 6 15 7 14 13 -3 4 -10 6 -21 4 -23z m21 -54
c21 -12 53 -41 69 -65 59 -83 43 -212 -32 -255 -29 -17 -39 -18 -71 -8 -47 14
-108 71 -132 125 -21 46 -24 118 -8 165 21 61 102 79 174 38z m-208 -59 c-3
-7 -5 -2 -5 12 0 14 2 19 5 13 2 -7 2 -19 0 -25z m-26 -18 c10 -6 19 -20 19
-30 0 -19 -4 -22 -31 -24 -6 -1 -13 14 -14 32 -3 36 -2 36 26 22z m-41 -25 c0
-8 -4 -15 -10 -15 -5 0 -7 7 -4 15 4 8 8 15 10 15 2 0 4 -7 4 -15z m-1218
-202 c-3 -94 -12 -92 -12 2 0 43 3 75 7 71 4 -4 6 -37 5 -73z m2092 3 c-14
-36 -74 -52 -74 -20 0 8 -10 19 -22 24 -18 7 -8 9 39 9 50 1 61 -2 57 -13z
m-900 -62 c18 -17 19 -29 6 -59 -7 -17 -9 -17 -9 -2 -1 9 -8 17 -17 17 -11 0
-14 -6 -8 -22 4 -13 12 -26 18 -30 7 -5 4 -8 -7 -8 -28 0 -52 27 -38 44 8 10
9 16 1 21 -18 11 -11 35 10 35 11 0 20 -5 20 -12 0 -6 3 -8 6 -5 4 4 1 13 -6
22 -17 20 4 20 24 -1z m80 -100 c2 -6 -9 -10 -29 -10 -20 1 -31 5 -27 11 4 5
5 18 3 29 -3 18 -2 18 23 0 14 -11 27 -24 30 -30z m-1217 4 c-3 -8 -6 -5 -6 6
-1 11 2 17 5 13 3 -3 4 -12 1 -19z m-10 -70 c-3 -8 -6 -5 -6 6 -1 11 2 17 5
13 3 -3 4 -12 1 -19z m-7 -65 c-1 -28 -3 -34 -10 -22 -8 14 -3 59 6 59 2 0 4
-17 4 -37z m1029 -66 c-7 -15 -7 -71 -2 -160 5 -76 7 -140 5 -142 -2 -1 -15 0
-30 4 l-27 7 -3 122 c-2 98 1 128 14 154 9 18 22 36 27 40 18 11 27 -2 16 -25z
m84 -22 c-3 -16 -6 -32 -6 -35 -1 -3 3 -47 7 -97 l8 -93 39 0 c37 0 39 1 38
33 0 17 -3 50 -8 72 -6 35 1 107 14 142 9 24 35 1 35 -31 0 -17 7 -69 15 -116
19 -110 19 -126 -5 -150 -15 -15 -33 -20 -79 -20 -89 0 -100 13 -111 135 -6
55 -7 109 -4 120 14 52 26 71 44 71 15 0 18 -6 13 -31z m831 -8 c13 -13 38
-60 57 -106 24 -58 45 -93 72 -117 34 -31 37 -38 31 -70 -3 -19 -14 -39 -24
-44 -10 -5 -23 -23 -28 -39 -6 -16 -22 -37 -35 -46 -26 -17 -42 -48 -52 -105
-21 -112 -129 -170 -225 -122 -43 21 -59 61 -59 154 -1 55 -5 73 -23 93 -25
29 -46 32 -64 8 -11 -17 -13 -16 -24 11 -6 16 -13 26 -16 23 -3 -3 -1 -14 5
-25 16 -30 13 -104 -5 -127 -11 -15 -13 -35 -9 -75 l5 -55 -15 45 c-8 25 -15
61 -15 80 0 19 -7 48 -15 64 -9 16 -13 31 -11 33 9 9 28 -10 42 -41 15 -31 15
-31 8 19 -3 28 -10 58 -15 67 -12 23 -11 31 6 54 14 18 14 18 8 -3 -3 -13 -1
-23 4 -23 16 0 32 70 35 152 1 43 4 74 7 69 9 -13 42 3 82 41 81 74 105 88
148 88 16 0 33 5 36 10 11 19 65 11 89 -13z m819 -76 c23 -11 54 -31 69 -44
24 -23 91 -143 132 -241 18 -41 20 -143 5 -184 -8 -20 -11 -21 -31 -11 -16 9
-23 9 -26 0 -6 -18 -37 -13 -59 12 -11 12 -30 39 -42 60 -24 40 -29 41 -118
28 -28 -4 -60 -4 -72 1 -17 6 -22 3 -26 -20 -4 -15 -14 -52 -24 -84 -28 -93
-120 -177 -180 -165 -81 17 -91 22 -187 101 -25 21 -32 32 -24 41 5 6 13 34
17 61 3 27 10 51 14 54 5 4 11 19 15 36 7 35 -19 70 -56 76 -18 2 -25 10 -27
29 -1 14 2 30 5 36 13 20 82 32 180 31 94 -1 104 -4 141 -41 19 -18 19 -18 14
18 -4 28 -2 36 9 33 7 -3 18 2 25 11 15 20 17 91 3 91 -7 0 -10 20 -9 48 l2
48 104 -3 c78 -2 114 -7 146 -22z m-2606 -73 c-2 -13 -4 -5 -4 17 -1 22 1 32
4 23 2 -10 2 -28 0 -40z m58 1 c-16 -27 -24 -34 -20 -19 8 30 35 74 41 67 2
-2 -7 -24 -21 -48z m1355 -35 c0 -8 -5 -12 -10 -9 -6 4 -8 11 -5 16 9 14 15
11 15 -7z m-74 -61 c-7 -7 -26 7 -26 19 0 6 6 6 15 -2 9 -7 13 -15 11 -17z
m-1259 -25 c-3 -7 -5 -2 -5 12 0 14 2 19 5 13 2 -7 2 -19 0 -25z m1316 -8 c-3
-12 -8 -19 -11 -16 -5 6 5 36 12 36 2 0 2 -9 -1 -20z m-1325 -84 c-7 -65 -106
-422 -115 -413 -2 3 21 107 51 231 31 124 57 233 57 243 1 17 2 16 6 -1 3 -10
3 -37 1 -60z m-127 -18 l-9 -33 -1 32 c-1 17 2 40 6 50 12 30 16 -9 4 -49z
m1400 -21 c-8 -8 -11 -7 -11 4 0 20 13 34 18 19 3 -7 -1 -17 -7 -23z m-1398
-172 c-3 -9 -8 -14 -10 -11 -3 3 -2 9 2 15 9 16 15 13 8 -4z m1344 -17 c-3 -8
-6 -5 -6 6 -1 11 2 17 5 13 3 -3 4 -12 1 -19z m77 -170 c-17 -67 -16 -69 10
-175 32 -133 32 -140 1 -76 -26 51 -76 108 -62 71 4 -10 2 -18 -3 -18 -13 0
-13 7 4 66 19 67 29 154 17 154 -5 0 -7 10 -3 22 3 13 1 19 -5 15 -6 -4 -14
-23 -18 -44 -9 -50 -56 -196 -66 -207 -14 -15 -22 23 -9 39 9 10 9 15 1 15 -6
0 -11 5 -11 10 0 5 3 9 8 7 8 -2 12 6 12 27 0 9 -7 12 -20 9 -17 -5 -19 -1
-14 33 9 63 12 68 30 50 36 -37 56 -8 47 65 -4 30 -3 40 5 35 8 -4 12 0 12 12
0 34 13 33 47 -4 l34 -37 -17 -69z m671 115 c4 -18 0 -32 -14 -47 -22 -23 -27
-51 -12 -60 12 -8 41 -99 41 -131 0 -14 9 -43 20 -65 34 -66 22 -166 -24 -209
-29 -27 -61 -29 -203 -15 -138 14 -152 36 -134 217 12 120 28 150 104 194 45
27 57 39 57 59 0 47 50 78 132 82 20 0 28 -5 33 -25z m-1535 -128 c-7 -9 -15
-13 -19 -10 -3 3 1 10 9 15 21 14 24 12 10 -5z m897 -77 c-3 -7 -5 -2 -5 12 0
14 2 19 5 13 2 -7 2 -19 0 -25z m-367 -31 c0 -2 -10 -12 -22 -23 l-23 -19 19
23 c18 21 26 27 26 19z m319 -149 c10 -35 31 -144 31 -162 -1 -17 -59 157 -60
177 0 29 18 19 29 -15z m-93 -36 c-9 -17 -20 -33 -25 -36 -5 -4 0 12 12 33 25
46 36 48 13 3z m-347 -26 c-19 -24 -38 -41 -43 -36 -9 9 1 23 44 65 37 37 37
21 -1 -29z m311 -40 c0 -2 -7 -9 -15 -16 -13 -11 -14 -10 -9 4 5 14 24 23 24
12z m-160 -56 c-7 -16 -17 -30 -23 -30 -6 0 -19 -7 -29 -17 -25 -23 -23 -9 5
21 12 13 29 33 36 45 20 28 26 18 11 -19z m247 8 c-3 -7 -5 -2 -5 12 0 14 2
19 5 13 2 -7 2 -19 0 -25z m-117 2 c0 -5 -4 -10 -10 -10 -5 0 -10 5 -10 10 0
6 5 10 10 10 6 0 10 -4 10 -10z m4224 -6 c9 -3 16 -17 16 -31 0 -34 -31 -27
-41 10 -7 28 -3 32 25 21z m296 -24 c0 -5 7 -10 16 -10 25 0 47 -28 40 -53 -3
-12 -1 -49 3 -82 6 -38 5 -65 -1 -72 -12 -15 -74 -12 -104 5 -12 6 -40 14 -63
18 -40 6 -58 24 -23 24 9 0 23 9 30 20 7 11 21 20 32 20 16 0 20 7 20 30 0 17
-4 30 -10 30 -5 0 -10 9 -10 20 0 13 7 20 20 20 13 0 20 7 20 20 0 11 7 20 15
20 8 0 15 -4 15 -10z m-4480 -15 c0 -8 -7 -15 -15 -15 -9 0 -12 6 -9 15 4 8
10 15 15 15 5 0 9 -7 9 -15z m-164 -31 c-4 -9 -9 -15 -11 -12 -3 3 -3 13 1 22
4 9 9 15 11 12 3 -3 3 -13 -1 -22z m310 -86 c13 -27 29 -48 34 -48 5 0 19 -18
30 -40 20 -39 20 -40 1 -40 -11 0 -23 -5 -27 -11 -4 -7 0 -9 13 -5 32 10 38
-3 59 -116 6 -34 32 -99 43 -108 10 -9 35 -60 30 -64 -6 -5 -162 -16 -157 -11
2 3 22 9 44 14 36 8 36 9 9 10 -46 1 -77 -10 -71 -25 3 -8 -1 -14 -10 -14 -8
0 -13 4 -10 9 3 5 -2 15 -11 22 -13 11 -17 11 -20 1 -3 -6 -9 -10 -13 -7 -8 5
7 65 19 75 16 14 39 70 30 75 -15 10 -10 25 5 19 11 -4 13 0 9 18 -3 16 -2 19
5 9 6 -8 12 -9 16 -3 11 18 -28 24 -41 6 -9 -13 -13 -14 -13 -4 0 7 8 22 17
32 10 12 13 22 7 28 -6 6 -16 -4 -28 -28 -46 -93 -54 -104 -99 -140 -13 -11
-11 0 9 50 15 34 30 70 35 78 45 78 47 93 6 71 -46 -25 -97 -130 -97 -198 0
-23 -5 -33 -20 -38 -24 -8 -17 -25 10 -25 50 0 28 -39 -33 -59 -47 -16 -85
-10 -44 7 34 14 35 28 1 36 -25 7 -25 8 -9 20 11 8 16 20 12 30 -6 16 -28 23
-26 9 5 -28 -5 -22 -25 17 -27 54 -39 126 -26 166 9 27 9 27 7 -11 -1 -26 2
-40 11 -40 7 0 21 -13 31 -29 15 -23 27 -29 60 -30 50 -3 58 6 36 40 -9 14
-13 33 -10 44 7 23 25 27 25 5 0 -28 26 -15 43 20 21 44 70 75 119 75 38 0 57
15 41 31 -5 5 -39 10 -76 12 -48 1 -67 6 -67 16 0 7 -6 11 -15 8 -10 -4 -16 4
-21 28 -13 72 25 100 56 40 l15 -30 3 55 3 55 25 -30 c14 -16 36 -51 50 -77z
m-1331 70 c-9 -30 -46 -90 -52 -85 -7 8 42 107 54 107 2 0 1 -10 -2 -22z
m1042 -13 c-4 -8 -12 -15 -19 -14 -10 0 -10 2 0 6 6 2 12 12 12 21 0 8 3 13 6
9 4 -3 4 -13 1 -22z m126 -2 c-9 -25 -33 -59 -33 -47 0 16 24 64 32 64 4 0 5
-8 1 -17z m-103 -78 c0 -14 -4 -25 -10 -25 -5 0 -10 11 -10 25 0 14 5 25 10
25 6 0 10 -11 10 -25z m-69 -38 c-13 -13 -15 1 -4 30 7 17 8 17 11 -1 2 -10
-1 -23 -7 -29z m30 6 c-12 -20 -14 -14 -5 12 4 9 9 14 11 11 3 -2 0 -13 -6
-23z m59 -19 c0 -8 -4 -12 -10 -9 -5 3 -10 10 -10 16 0 5 5 9 10 9 6 0 10 -7
10 -16z m-74 -43 c-1 -17 -5 -26 -9 -21 -5 4 -6 17 -2 29 9 29 12 26 11 -8z
m-376 -31 c0 -5 -5 -10 -11 -10 -5 0 -7 5 -4 10 3 6 8 10 11 10 2 0 4 -4 4
-10z m70 7 c0 -2 -10 -12 -22 -23 l-23 -19 19 23 c18 21 26 27 26 19z m-510
-81 c0 -11 -19 -15 -25 -6 -3 5 1 10 9 10 9 0 16 -2 16 -4z m-200 -126 c0 -5
-5 -10 -11 -10 -5 0 -7 5 -4 10 3 6 8 10 11 10 2 0 4 -4 4 -10z m1230 -64 c0
-3 -4 -8 -10 -11 -5 -3 -10 -1 -10 4 0 6 5 11 10 11 6 0 10 -2 10 -4z m-931
-46 c-21 -14 -32 1 -12 15 12 9 19 10 22 3 2 -6 -3 -14 -10 -18z m988 -6 c-3
-3 -12 -4 -19 -1 -8 3 -5 6 6 6 11 1 17 -2 13 -5z m223 -16 c8 -13 18 -34 22
-48 4 -14 18 -67 32 -118 14 -51 30 -101 36 -112 17 -32 12 -45 -10 -25 -12
10 -18 25 -16 32 4 9 -4 13 -22 13 -21 0 -24 2 -12 10 18 11 12 12 -54 10 -45
-2 -48 0 -37 14 12 14 11 16 -3 10 -17 -6 7 37 62 115 l17 25 -29 -19 -29 -20
17 28 c10 15 14 27 10 27 -13 -1 -84 -68 -84 -80 0 -20 -15 -16 -16 5 -1 16
13 34 47 61 31 24 45 42 39 48 -6 6 -18 3 -32 -10 -22 -18 -22 -17 1 8 13 15
28 25 32 22 5 -3 6 2 3 10 -9 24 9 19 26 -6z m-1505 -8 c3 -6 -4 -10 -17 -10
-18 0 -20 2 -8 10 19 12 18 12 25 0z m1203 3 c-10 -2 -26 -2 -35 0 -10 3 -2 5
17 5 19 0 27 -2 18 -5z m-105 -20 c-7 -2 -21 -2 -30 0 -10 3 -4 5 12 5 17 0
24 -2 18 -5z m-993 -33 c0 -5 -4 -10 -10 -10 -5 0 -10 5 -10 10 0 6 5 10 10
10 6 0 10 -4 10 -10z m355 -10 c-3 -5 -16 -10 -28 -9 -21 0 -21 1 -2 9 28 12
37 12 30 0z m-207 -7 c-10 -2 -26 -2 -35 0 -10 3 -2 5 17 5 19 0 27 -2 18 -5z
m-325 -115 c-20 -35 -48 -81 -63 -103 -15 -22 -30 -50 -34 -62 -6 -20 -26 -33
-26 -18 0 9 70 135 107 193 47 73 60 65 16 -10z m-83 37 c-7 -9 -15 -13 -17
-11 -7 7 7 26 19 26 6 0 6 -6 -2 -15z m2480 -19 c0 -12 -7 -30 -15 -40 -14
-18 -15 -18 -25 9 -7 18 -7 31 0 40 16 19 40 14 40 -9z m3195 -158 c0 -43 -3
-53 -18 -56 -29 -6 -47 17 -47 59 0 28 4 37 14 33 8 -3 16 4 19 18 11 39 31 4
32 -54z m-4125 -2 c0 -2 -8 -10 -17 -17 -16 -13 -17 -12 -4 4 13 16 21 21 21
13z"/>
<path d="M3033 4335 c-9 -10 -7 -14 13 -18 21 -4 23 -2 12 12 -7 9 -12 17 -13
17 0 1 -5 -4 -12 -11z"/>
<path d="M1812 3429 c-18 -12 -31 -23 -29 -26 5 -4 77 36 77 43 0 9 -16 3 -48
-17z"/>
<path d="M1739 3420 c-31 -25 -12 -26 21 0 14 11 20 20 14 20 -7 0 -22 -9 -35
-20z"/>
<path d="M2993 3385 c-10 -11 -8 -19 8 -39 24 -30 12 -36 -14 -6 -9 11 -22 20
-29 20 -10 0 -9 -3 1 -9 8 -5 10 -14 6 -21 -5 -9 -4 -11 4 -6 6 4 18 3 25 -3
14 -12 46 -5 46 9 0 4 -6 10 -14 13 -8 3 -16 17 -18 30 -2 20 -5 22 -15 12z"/>
<path d="M1981 3347 c2 -1 13 -9 24 -17 19 -14 19 -14 6 3 -7 9 -18 17 -24 17
-6 0 -8 -1 -6 -3z"/>
<path d="M2950 3284 c0 -8 5 -12 10 -9 6 3 10 10 10 16 0 5 -4 9 -10 9 -5 0
-10 -7 -10 -16z"/>
<path d="M2041 3274 c0 -11 3 -14 6 -6 3 7 2 16 -1 19 -3 4 -6 -2 -5 -13z"/>
<path d="M2030 3221 c0 -19 23 -35 34 -24 7 8 -12 43 -24 43 -6 0 -10 -9 -10
-19z"/>
<path d="M2010 3190 c8 -5 20 -10 25 -10 6 0 3 5 -5 10 -8 5 -19 10 -25 10 -5
0 -3 -5 5 -10z"/>
<path d="M1985 3163 c3 -8 5 -17 5 -19 0 -2 11 -4 23 -4 34 0 30 27 -5 32 -22
4 -28 1 -23 -9z"/>
<path d="M2058 3163 c7 -3 16 -2 19 1 4 3 -2 6 -13 5 -11 0 -14 -3 -6 -6z"/>
<path d="M1865 3140 c3 -5 11 -10 16 -10 6 0 7 5 4 10 -3 6 -11 10 -16 10 -6
0 -7 -4 -4 -10z"/>
<path d="M1875 3060 c-10 -11 -13 -20 -8 -20 13 0 38 29 31 35 -3 3 -13 -4
-23 -15z"/>
<path d="M1754 3042 c-15 -10 -37 -52 -30 -59 2 -3 17 4 33 14 15 11 36 23 46
26 10 4 15 11 12 17 -7 12 -45 13 -61 2z"/>
<path d="M1738 2849 c-26 -20 -38 -49 -20 -49 11 0 37 30 45 53 8 21 8 21 -25
-4z"/>
<path d="M3905 3180 c3 -5 13 -10 21 -10 8 0 12 5 9 10 -3 6 -13 10 -21 10 -8
0 -12 -4 -9 -10z"/>
<path d="M3075 2920 c-3 -5 -1 -10 4 -10 6 0 11 5 11 10 0 6 -2 10 -4 10 -3 0
-8 -4 -11 -10z"/>
<path d="M3110 2920 c-18 -11 18 -22 37 -11 13 7 12 9 -5 13 -11 3 -25 2 -32
-2z"/>
<path d="M3035 2899 c-10 -15 3 -25 16 -12 7 7 7 13 1 17 -6 3 -14 1 -17 -5z"/>
<path d="M3160 2889 c0 -5 9 -9 20 -9 11 0 20 2 20 4 0 2 -9 6 -20 9 -11 3
-20 1 -20 -4z"/>
<path d="M3015 2850 c-3 -6 1 -7 9 -4 18 7 21 14 7 14 -6 0 -13 -4 -16 -10z"/>
<path d="M3181 2857 c2 -2 21 -16 43 -31 33 -25 37 -26 27 -8 -12 23 -41 42
-62 42 -7 0 -10 -1 -8 -3z"/>
<path d="M3026 2818 c-17 -24 -21 -48 -8 -48 8 0 34 61 28 67 -2 3 -11 -6 -20
-19z"/>
<path d="M3221 2794 c21 -22 21 -24 4 -18 -18 7 -19 6 -6 -9 8 -10 11 -20 7
-24 -3 -3 -6 -1 -6 5 0 7 -4 12 -10 12 -5 0 -10 -17 -11 -37 0 -30 -2 -34 -9
-18 -4 12 -15 27 -24 34 -15 12 -19 12 -32 -1 -9 -9 -12 -22 -8 -33 7 -17 8
-16 16 5 7 18 11 20 23 10 8 -7 15 -21 15 -32 0 -28 -39 -20 -69 15 -18 22
-26 25 -32 15 -6 -9 -9 -8 -9 7 -1 24 -24 58 -33 48 -17 -16 -4 -58 30 -98 35
-43 87 -74 100 -61 3 3 1 6 -6 6 -7 0 -9 5 -6 10 3 6 17 10 31 10 16 0 23 -4
18 -11 -4 -7 -1 -10 6 -7 23 7 48 51 55 94 5 35 2 46 -20 72 -15 18 -32 32
-38 32 -6 0 0 -11 14 -26z"/>
<path d="M3265 570 c3 -5 10 -10 16 -10 5 0 9 5 9 10 0 6 -7 10 -16 10 -8 0
-12 -4 -9 -10z"/>
<path d="M6589 572 c-25 -26 -56 -66 -67 -89 -12 -23 -25 -44 -30 -47 -5 -3
-21 -39 -37 -81 -16 -42 -38 -81 -47 -86 -10 -5 -18 -16 -18 -23 0 -12 -40
-42 -97 -74 -13 -6 -40 -12 -62 -12 -24 0 -61 -11 -96 -30 -31 -16 -62 -30
-68 -30 -6 0 -31 -21 -56 -48 l-45 -47 343 -3 c385 -3 374 -5 374 70 0 22 -6
44 -13 48 -19 12 -9 153 12 177 30 33 34 115 8 196 -34 108 -42 127 -49 126
-3 0 -27 -21 -52 -47z"/>
<path d="M0 561 c0 -59 17 -85 70 -107 33 -14 35 -14 52 8 10 13 18 30 18 38
0 17 -17 90 -22 95 -1 2 -29 6 -60 10 l-58 7 0 -51z"/>
<path d="M1641 394 c0 -11 3 -14 6 -6 3 7 2 16 -1 19 -3 4 -6 -2 -5 -13z"/>
<path d="M5435 370 c-3 -5 -1 -10 5 -10 7 0 9 -12 7 -29 -4 -24 2 -37 31 -65
42 -43 77 -46 110 -12 28 30 28 43 -3 89 -25 36 -28 37 -85 37 -32 0 -62 -4
-65 -10z"/>
<path d="M1728 333 c6 -2 18 -2 25 0 6 3 1 5 -13 5 -14 0 -19 -2 -12 -5z"/>
<path d="M0 101 l0 -101 157 0 c122 0 154 3 145 12 -7 7 -12 20 -12 29 0 16
-98 114 -146 145 -21 14 -30 15 -69 4 -36 -10 -48 -10 -60 0 -13 11 -15 0 -15
-89z"/>
<path d="M1390 10 c0 -13 57 -13 65 0 4 6 -8 10 -29 10 -20 0 -36 -4 -36 -10z"/>
<path d="M522 3 c49 -2 127 -2 176 0 48 1 8 3 -88 3 -96 0 -136 -2 -88 -3z"/>
<path d="M873 3 c9 -2 23 -2 30 0 6 3 -1 5 -18 5 -16 0 -22 -2 -12 -5z"/>
</g>
</svg>
