<svg width="81" height="15" viewBox="0 0 81 15" fill="none" xmlns="http://www.w3.org/2000/svg">
<path d="M22.43 10.01V11H18.66V10.01H20.03V4.95C19.9767 5.03 19.8867 5.12 19.76 5.22C19.64 5.31333 19.5033 5.40667 19.35 5.5C19.1967 5.58667 19.0367 5.66 18.87 5.72C18.71 5.78 18.5633 5.81 18.43 5.81V4.79C18.61 4.79 18.79 4.74333 18.97 4.65C19.1567 4.55667 19.33 4.45 19.49 4.33C19.65 4.20333 19.7767 4.09 19.87 3.99C19.97 3.89 20.0233 3.83667 20.03 3.83H21.16V10.01H22.43ZM25.4184 11.08C25.0251 11.08 24.6651 11.0233 24.3384 10.91C24.0184 10.7967 23.7484 10.6333 23.5284 10.42C23.3084 10.2067 23.1484 9.96 23.0484 9.68L23.6484 8.96C23.6951 9.13333 23.7918 9.30667 23.9384 9.48C24.0918 9.65333 24.2884 9.79333 24.5284 9.9C24.7751 10.0067 25.0618 10.06 25.3884 10.06C25.6751 10.06 25.9284 10.0167 26.1484 9.93C26.3751 9.83667 26.5551 9.70667 26.6884 9.54C26.8218 9.37333 26.8884 9.17667 26.8884 8.95C26.8884 8.69667 26.8084 8.48333 26.6484 8.31C26.4884 8.13667 26.2584 8.00667 25.9584 7.92C25.6584 7.83333 25.2984 7.79 24.8784 7.79H24.5384V6.91H24.8784C25.4318 6.91 25.8718 6.82 26.1984 6.64C26.5318 6.46 26.6984 6.19333 26.6984 5.84C26.6984 5.62 26.6384 5.43 26.5184 5.27C26.3984 5.10333 26.2418 4.98 26.0484 4.9C25.8551 4.81333 25.6418 4.77 25.4084 4.77C25.0284 4.77 24.6984 4.85667 24.4184 5.03C24.1384 5.20333 23.9351 5.41667 23.8084 5.67L23.0884 4.88C23.2284 4.66 23.4218 4.47 23.6684 4.31C23.9151 4.15 24.1918 4.02667 24.4984 3.94C24.8118 3.85333 25.1284 3.81 25.4484 3.81C25.9151 3.81 26.3318 3.89333 26.6984 4.06C27.0651 4.22667 27.3518 4.45667 27.5584 4.75C27.7651 5.03667 27.8684 5.36333 27.8684 5.73C27.8684 5.99667 27.8118 6.23667 27.6984 6.45C27.5918 6.66333 27.4351 6.84333 27.2284 6.99C27.0284 7.13 26.7884 7.23333 26.5084 7.3C26.8084 7.35333 27.0718 7.46667 27.2984 7.64C27.5318 7.81333 27.7084 8.02667 27.8284 8.28C27.9551 8.53333 28.0184 8.81 28.0184 9.11C28.0184 9.52333 27.8984 9.87667 27.6584 10.17C27.4251 10.4633 27.1118 10.69 26.7184 10.85C26.3251 11.0033 25.8918 11.08 25.4184 11.08ZM31.0653 9.75C31.172 9.83 31.3353 9.91 31.5553 9.99C31.7753 10.0633 32.0353 10.1 32.3353 10.1C32.6286 10.1 32.8653 10.0533 33.0453 9.96C33.232 9.86 33.372 9.71333 33.4653 9.52C33.5653 9.32 33.632 9.06667 33.6653 8.76C33.7053 8.45333 33.7253 8.09 33.7253 7.67V3.9H34.8553V7.51C34.8553 8.03667 34.8253 8.52 34.7653 8.96C34.712 9.4 34.602 9.78333 34.4353 10.11C34.2686 10.43 34.0186 10.6767 33.6853 10.85C33.3586 11.0233 32.9186 11.11 32.3653 11.11C32.0386 11.11 31.7486 11.0733 31.4953 11C31.242 10.9267 31.0086 10.8167 30.7953 10.67L31.0653 9.75ZM35.7702 9.47C35.7702 9.13667 35.8636 8.84667 36.0502 8.6C36.2436 8.34667 36.5069 8.15333 36.8402 8.02C37.1736 7.88 37.5602 7.81 38.0002 7.81C38.2336 7.81 38.4702 7.82667 38.7102 7.86C38.9569 7.89333 39.1736 7.94667 39.3602 8.02V7.69C39.3602 7.32333 39.2502 7.03667 39.0302 6.83C38.8102 6.62333 38.4936 6.52 38.0802 6.52C37.7869 6.52 37.5102 6.57333 37.2502 6.68C36.9902 6.78 36.7136 6.92333 36.4202 7.11L36.0502 6.37C36.3969 6.13667 36.7436 5.96333 37.0902 5.85C37.4436 5.73667 37.8136 5.68 38.2002 5.68C38.9002 5.68 39.4502 5.86667 39.8502 6.24C40.2569 6.60667 40.4602 7.13 40.4602 7.81V9.76C40.4602 9.88667 40.4802 9.97667 40.5202 10.03C40.5669 10.0833 40.6436 10.1133 40.7502 10.12V11C40.6502 11.02 40.5602 11.0333 40.4802 11.04C40.4002 11.0467 40.3336 11.05 40.2802 11.05C40.0469 11.05 39.8702 10.9933 39.7502 10.88C39.6302 10.7667 39.5602 10.6333 39.5402 10.48L39.5102 10.18C39.2836 10.4733 38.9936 10.7 38.6402 10.86C38.2869 11.02 37.9302 11.1 37.5702 11.1C37.2236 11.1 36.9136 11.03 36.6402 10.89C36.3669 10.7433 36.1536 10.5467 36.0002 10.3C35.8469 10.0533 35.7702 9.77667 35.7702 9.47ZM39.1002 9.79C39.1802 9.70333 39.2436 9.61667 39.2902 9.53C39.3369 9.44333 39.3602 9.36667 39.3602 9.3V8.7C39.1736 8.62667 38.9769 8.57333 38.7702 8.54C38.5636 8.5 38.3602 8.48 38.1602 8.48C37.7602 8.48 37.4336 8.56 37.1802 8.72C36.9336 8.88 36.8102 9.1 36.8102 9.38C36.8102 9.53333 36.8502 9.68 36.9302 9.82C37.0169 9.96 37.1369 10.0733 37.2902 10.16C37.4502 10.2467 37.6469 10.29 37.8802 10.29C38.1202 10.29 38.3502 10.2433 38.5702 10.15C38.7902 10.0567 38.9669 9.93667 39.1002 9.79ZM46.4848 11H45.3848V8.07C45.3848 7.58333 45.3048 7.22667 45.1448 7C44.9914 6.77333 44.7614 6.66 44.4548 6.66C44.2414 6.66 44.0281 6.71333 43.8148 6.82C43.6081 6.92667 43.4214 7.07333 43.2548 7.26C43.0881 7.44 42.9681 7.65 42.8948 7.89V11H41.7948V5.77H42.7948V6.82C42.9281 6.58667 43.1014 6.38667 43.3148 6.22C43.5348 6.04667 43.7814 5.91333 44.0548 5.82C44.3281 5.72667 44.6181 5.68 44.9248 5.68C45.2381 5.68 45.4948 5.73667 45.6948 5.85C45.9014 5.96333 46.0614 6.12 46.1748 6.32C46.2948 6.51333 46.3748 6.74 46.4148 7C46.4614 7.25333 46.4848 7.52333 46.4848 7.81V11ZM50.3823 12.3V3.25H51.3223V12.3H50.3823ZM59.0316 10.01V11H55.2616V10.01H56.6316V4.95C56.5782 5.03 56.4882 5.12 56.3616 5.22C56.2416 5.31333 56.1049 5.40667 55.9516 5.5C55.7982 5.58667 55.6382 5.66 55.4716 5.72C55.3116 5.78 55.1649 5.81 55.0316 5.81V4.79C55.2116 4.79 55.3916 4.74333 55.5716 4.65C55.7582 4.55667 55.9316 4.45 56.0916 4.33C56.2516 4.20333 56.3782 4.09 56.4716 3.99C56.5716 3.89 56.6249 3.83667 56.6316 3.83H57.7616V10.01H59.0316ZM64.89 8.64C64.89 9.09333 64.7767 9.50667 64.55 9.88C64.33 10.2533 64.0233 10.55 63.63 10.77C63.2433 10.99 62.81 11.1 62.33 11.1C61.81 11.1 61.3533 10.9767 60.96 10.73C60.5733 10.4767 60.27 10.1133 60.05 9.64C59.8367 9.16667 59.73 8.60333 59.73 7.95C59.73 7.04333 59.84 6.28667 60.06 5.68C60.2867 5.07333 60.6033 4.61667 61.01 4.31C61.4167 4.00333 61.8933 3.85 62.44 3.85C62.8933 3.85 63.3067 3.95667 63.68 4.17C64.06 4.37667 64.3667 4.66667 64.6 5.04L63.95 5.72C63.7967 5.44 63.5833 5.22 63.31 5.06C63.0433 4.89333 62.7467 4.81 62.42 4.81C62.0933 4.81 61.8033 4.90667 61.55 5.1C61.3033 5.28667 61.11 5.56 60.97 5.92C60.8367 6.28 60.7667 6.71667 60.76 7.23C60.86 7.03 60.99 6.86 61.15 6.72C61.3167 6.57333 61.51 6.46 61.73 6.38C61.95 6.3 62.1833 6.26 62.43 6.26C62.8967 6.26 63.3133 6.36667 63.68 6.58C64.0533 6.79333 64.3467 7.08 64.56 7.44C64.78 7.79333 64.89 8.19333 64.89 8.64ZM62.33 10.16C62.6033 10.16 62.8533 10.0933 63.08 9.96C63.3133 9.82 63.4967 9.63333 63.63 9.4C63.77 9.16667 63.84 8.91333 63.84 8.64C63.84 8.36667 63.77 8.11667 63.63 7.89C63.4967 7.66333 63.3167 7.48333 63.09 7.35C62.8633 7.21 62.61 7.14 62.33 7.14C62.0633 7.14 61.8133 7.21 61.58 7.35C61.3467 7.48333 61.16 7.66333 61.02 7.89C60.8867 8.11667 60.82 8.36667 60.82 8.64C60.82 8.91333 60.89 9.16667 61.03 9.4C61.17 9.62667 61.3533 9.81 61.58 9.95C61.8133 10.09 62.0633 10.16 62.33 10.16ZM65.9842 7.09V5.82H66.8942V7.09H65.9842ZM65.9842 11V9.72H66.8942V11H65.9842ZM71.0308 11.1C70.5308 11.0867 70.0908 10.97 69.7108 10.75C69.3308 10.53 69.0141 10.2433 68.7608 9.89C68.5074 9.53 68.3141 9.14333 68.1808 8.73C68.0541 8.31 67.9908 7.9 67.9908 7.5C67.9908 7.07333 68.0608 6.64667 68.2008 6.22C68.3408 5.79333 68.5441 5.40667 68.8108 5.06C69.0774 4.70667 69.3974 4.42667 69.7708 4.22C70.1441 4.00667 70.5641 3.9 71.0308 3.9C71.5308 3.9 71.9674 4.01333 72.3408 4.24C72.7208 4.46667 73.0374 4.76 73.2908 5.12C73.5441 5.48 73.7341 5.87 73.8608 6.29C73.9941 6.71 74.0608 7.11333 74.0608 7.5C74.0608 7.93333 73.9908 8.36333 73.8508 8.79C73.7108 9.21 73.5074 9.59333 73.2408 9.94C72.9741 10.2867 72.6541 10.5667 72.2808 10.78C71.9141 10.9867 71.4974 11.0933 71.0308 11.1ZM69.1308 7.5C69.1441 7.80667 69.1874 8.11333 69.2608 8.42C69.3408 8.72 69.4608 8.99667 69.6208 9.25C69.7808 9.50333 69.9774 9.70667 70.2108 9.86C70.4441 10.0133 70.7174 10.09 71.0308 10.09C71.3574 10.09 71.6374 10.01 71.8708 9.85C72.1108 9.68333 72.3074 9.47 72.4608 9.21C72.6141 8.94333 72.7274 8.66 72.8008 8.36C72.8808 8.06 72.9208 7.77333 72.9208 7.5C72.9208 7.19333 72.8774 6.89 72.7908 6.59C72.7108 6.28333 72.5908 6.00333 72.4308 5.75C72.2708 5.49667 72.0741 5.29333 71.8408 5.14C71.6074 4.98667 71.3374 4.91 71.0308 4.91C70.7041 4.91 70.4208 4.99333 70.1808 5.16C69.9408 5.32 69.7441 5.53333 69.5908 5.8C69.4374 6.06 69.3208 6.34 69.2408 6.64C69.1674 6.94 69.1308 7.22667 69.1308 7.5ZM77.9439 11V9.28H74.7739V8.3L78.2839 3.9H79.0439V8.29H79.9239V9.28H79.0439V11H77.9439ZM75.8939 8.29H78.0639V5.57L75.8939 8.29Z" fill="#404040"/>
<mask id="mask0_1_16695" style="mask-type:alpha" maskUnits="userSpaceOnUse" x="0" y="0" width="15" height="15">
<rect width="15" height="15" fill="#D9D9D9"/>
</mask>
<g mask="url(#mask0_1_16695)">
<path d="M3.31731 13.4376C3.0016 13.4376 2.73438 13.3282 2.51563 13.1094C2.29688 12.8907 2.1875 12.6235 2.1875 12.3077V3.9424C2.1875 3.62669 2.29688 3.35946 2.51563 3.14071C2.73438 2.92196 3.0016 2.81259 3.31731 2.81259H4.1827V1.49048H5.14422V2.81259H9.87978V1.49048H10.8173V2.81259H11.6827C11.9984 2.81259 12.2656 2.92196 12.4843 3.14071C12.7031 3.35946 12.8125 3.62669 12.8125 3.9424V12.3077C12.8125 12.6235 12.7031 12.8907 12.4843 13.1094C12.2656 13.3282 11.9984 13.4376 11.6827 13.4376H3.31731ZM3.31731 12.5001H11.6827C11.7307 12.5001 11.7748 12.48 11.8149 12.44C11.855 12.3999 11.875 12.3558 11.875 12.3077V6.4424H3.12498V12.3077C3.12498 12.3558 3.14502 12.3999 3.18508 12.44C3.22515 12.48 3.26923 12.5001 3.31731 12.5001ZM3.12498 5.50492H11.875V3.9424C11.875 3.89432 11.855 3.85024 11.8149 3.81017C11.7748 3.7701 11.7307 3.75007 11.6827 3.75007H3.31731C3.26923 3.75007 3.22515 3.7701 3.18508 3.81017C3.14502 3.85024 3.12498 3.89432 3.12498 3.9424V5.50492ZM7.49998 8.79815C7.34694 8.79815 7.21654 8.74427 7.10877 8.63649C7.001 8.52872 6.94711 8.39832 6.94711 8.24528C6.94711 8.09223 7.001 7.96183 7.10877 7.85406C7.21654 7.74629 7.34694 7.6924 7.49998 7.6924C7.65303 7.6924 7.78343 7.74629 7.8912 7.85406C7.99897 7.96183 8.05286 8.09223 8.05286 8.24528C8.05286 8.39832 7.99897 8.52872 7.8912 8.63649C7.78343 8.74427 7.65303 8.79815 7.49998 8.79815ZM4.99998 8.79815C4.84694 8.79815 4.71654 8.74427 4.60877 8.63649C4.50099 8.52872 4.44711 8.39832 4.44711 8.24528C4.44711 8.09223 4.50099 7.96183 4.60877 7.85406C4.71654 7.74629 4.84694 7.6924 4.99998 7.6924C5.15303 7.6924 5.28343 7.74629 5.3912 7.85406C5.49897 7.96183 5.55286 8.09223 5.55286 8.24528C5.55286 8.39832 5.49897 8.52872 5.3912 8.63649C5.28343 8.74427 5.15303 8.79815 4.99998 8.79815ZM9.99999 8.79815C9.84694 8.79815 9.71654 8.74427 9.60877 8.63649C9.501 8.52872 9.44711 8.39832 9.44711 8.24528C9.44711 8.09223 9.501 7.96183 9.60877 7.85406C9.71654 7.74629 9.84694 7.6924 9.99999 7.6924C10.153 7.6924 10.2834 7.74629 10.3912 7.85406C10.499 7.96183 10.5529 8.09223 10.5529 8.24528C10.5529 8.39832 10.499 8.52872 10.3912 8.63649C10.2834 8.74427 10.153 8.79815 9.99999 8.79815ZM7.49998 11.2501C7.34694 11.2501 7.21654 11.1962 7.10877 11.0884C7.001 10.9806 6.94711 10.8502 6.94711 10.6972C6.94711 10.5442 7.001 10.4137 7.10877 10.306C7.21654 10.1982 7.34694 10.1443 7.49998 10.1443C7.65303 10.1443 7.78343 10.1982 7.8912 10.306C7.99897 10.4137 8.05286 10.5442 8.05286 10.6972C8.05286 10.8502 7.99897 10.9806 7.8912 11.0884C7.78343 11.1962 7.65303 11.2501 7.49998 11.2501ZM4.99998 11.2501C4.84694 11.2501 4.71654 11.1962 4.60877 11.0884C4.50099 10.9806 4.44711 10.8502 4.44711 10.6972C4.44711 10.5442 4.50099 10.4137 4.60877 10.306C4.71654 10.1982 4.84694 10.1443 4.99998 10.1443C5.15303 10.1443 5.28343 10.1982 5.3912 10.306C5.49897 10.4137 5.55286 10.5442 5.55286 10.6972C5.55286 10.8502 5.49897 10.9806 5.3912 11.0884C5.28343 11.1962 5.15303 11.2501 4.99998 11.2501ZM9.99999 11.2501C9.84694 11.2501 9.71654 11.1962 9.60877 11.0884C9.501 10.9806 9.44711 10.8502 9.44711 10.6972C9.44711 10.5442 9.501 10.4137 9.60877 10.306C9.71654 10.1982 9.84694 10.1443 9.99999 10.1443C10.153 10.1443 10.2834 10.1982 10.3912 10.306C10.499 10.4137 10.5529 10.5442 10.5529 10.6972C10.5529 10.8502 10.499 10.9806 10.3912 11.0884C10.2834 11.1962 10.153 11.2501 9.99999 11.2501Z" fill="#404040"/>
</g>
</svg>
