<svg width="99" height="15" viewBox="0 0 99 15" fill="none" xmlns="http://www.w3.org/2000/svg">
<mask id="mask0_1_16686" style="mask-type:alpha" maskUnits="userSpaceOnUse" x="0" y="0" width="15" height="15">
<rect width="15" height="15" fill="#D9D9D9"/>
</mask>
<g mask="url(#mask0_1_16686)">
<path d="M0.312531 11.1178V10.3558C0.312531 9.93992 0.529676 9.59838 0.963968 9.33115C1.39826 9.06392 1.96436 8.9303 2.66227 8.9303C2.77765 8.9303 2.89384 8.93391 3.01083 8.94113C3.12782 8.94834 3.2456 8.96236 3.36419 8.9832C3.2424 9.1779 3.15205 9.38002 3.09316 9.58955C3.03427 9.79909 3.00483 10.014 3.00483 10.2344V11.1178H0.312531ZM4.06252 11.1178V10.2584C4.06252 9.96582 4.14465 9.69835 4.30892 9.45604C4.47318 9.21373 4.70996 9.00242 5.01925 8.82213C5.32854 8.64185 5.69392 8.50664 6.11539 8.41649C6.53686 8.32635 6.99759 8.28127 7.49759 8.28127C8.00721 8.28127 8.47275 8.32635 8.89422 8.41649C9.31569 8.50664 9.68107 8.64185 9.99037 8.82213C10.2997 9.00242 10.5348 9.21373 10.6959 9.45604C10.857 9.69835 10.9375 9.96582 10.9375 10.2584V11.1178H4.06252ZM11.9952 11.1178V10.2362C11.9952 10.0011 11.9673 9.77955 11.9116 9.57159C11.856 9.36362 11.7724 9.16749 11.661 8.9832C11.7836 8.96236 11.9008 8.94834 12.0126 8.94113C12.1244 8.93391 12.2348 8.9303 12.3437 8.9303C13.0417 8.9303 13.6068 9.06231 14.039 9.32634C14.4713 9.59036 14.6875 9.93351 14.6875 10.3558V11.1178H11.9952ZM5.04808 10.1803H9.96155V10.1142C9.89744 9.86179 9.63142 9.64945 9.16347 9.47718C8.69552 9.3049 8.14103 9.21876 7.5 9.21876C6.85897 9.21876 6.30448 9.3049 5.83653 9.47718C5.36858 9.64945 5.10576 9.86179 5.04808 10.1142V10.1803ZM2.66067 8.32334C2.36607 8.32334 2.1144 8.2186 1.90567 8.00912C1.69694 7.79964 1.59258 7.54781 1.59258 7.25365C1.59258 6.95558 1.69732 6.70377 1.9068 6.49824C2.11628 6.29271 2.3681 6.18995 2.66227 6.18995C2.96034 6.18995 3.21314 6.29271 3.42067 6.49824C3.6282 6.70377 3.73197 6.95617 3.73197 7.25543C3.73197 7.5459 3.6293 7.7965 3.42397 8.00724C3.21863 8.21797 2.9642 8.32334 2.66067 8.32334ZM12.3437 8.32334C12.0521 8.32334 11.8009 8.21797 11.5901 8.00724C11.3794 7.7965 11.274 7.5459 11.274 7.25543C11.274 6.95617 11.3794 6.70377 11.5901 6.49824C11.8009 6.29271 12.0525 6.18995 12.3449 6.18995C12.6462 6.18995 12.8996 6.29271 13.1051 6.49824C13.3107 6.70377 13.4134 6.95558 13.4134 7.25365C13.4134 7.54781 13.3109 7.79964 13.1059 8.00912C12.9009 8.2186 12.6468 8.32334 12.3437 8.32334ZM7.50212 7.81252C7.052 7.81252 6.66868 7.65477 6.35217 7.33927C6.03567 7.02377 5.87742 6.64066 5.87742 6.18995C5.87742 5.73022 6.03517 5.34486 6.35067 5.03387C6.66617 4.72288 7.04928 4.56738 7.5 4.56738C7.95973 4.56738 8.34509 4.72267 8.65609 5.03326C8.96708 5.34384 9.12258 5.7287 9.12258 6.18784C9.12258 6.63796 8.96729 7.02127 8.6567 7.33777C8.34611 7.65427 7.96125 7.81252 7.50212 7.81252ZM7.503 6.87505C7.69411 6.87505 7.85558 6.80815 7.98739 6.67434C8.11919 6.54051 8.18509 6.37805 8.18509 6.18694C8.18509 5.99584 8.11944 5.83438 7.98814 5.70257C7.85683 5.57076 7.69411 5.50485 7.5 5.50485C7.3109 5.50485 7.14944 5.57051 7.01562 5.70182C6.88181 5.83313 6.81491 5.99584 6.81491 6.18995C6.81491 6.37905 6.88181 6.54051 7.01562 6.67434C7.14944 6.80815 7.31189 6.87505 7.503 6.87505Z" fill="#404040"/>
</g>
<path d="M25.44 11V9.28H22.27V8.3L25.78 3.9H26.54V8.29H27.42V9.28H26.54V11H25.44ZM23.39 8.29H25.56V5.57L23.39 8.29ZM31.2905 11.1C30.7905 11.0867 30.3505 10.97 29.9705 10.75C29.5905 10.53 29.2739 10.2433 29.0205 9.89C28.7672 9.53 28.5739 9.14333 28.4405 8.73C28.3139 8.31 28.2505 7.9 28.2505 7.5C28.2505 7.07333 28.3205 6.64667 28.4605 6.22C28.6005 5.79333 28.8039 5.40667 29.0705 5.06C29.3372 4.70667 29.6572 4.42667 30.0305 4.22C30.4039 4.00667 30.8239 3.9 31.2905 3.9C31.7905 3.9 32.2272 4.01333 32.6005 4.24C32.9805 4.46667 33.2972 4.76 33.5505 5.12C33.8039 5.48 33.9939 5.87 34.1205 6.29C34.2539 6.71 34.3205 7.11333 34.3205 7.5C34.3205 7.93333 34.2505 8.36333 34.1105 8.79C33.9705 9.21 33.7672 9.59333 33.5005 9.94C33.2339 10.2867 32.9139 10.5667 32.5405 10.78C32.1739 10.9867 31.7572 11.0933 31.2905 11.1ZM29.3905 7.5C29.4039 7.80667 29.4472 8.11333 29.5205 8.42C29.6005 8.72 29.7205 8.99667 29.8805 9.25C30.0405 9.50333 30.2372 9.70667 30.4705 9.86C30.7039 10.0133 30.9772 10.09 31.2905 10.09C31.6172 10.09 31.8972 10.01 32.1305 9.85C32.3705 9.68333 32.5672 9.47 32.7205 9.21C32.8739 8.94333 32.9872 8.66 33.0605 8.36C33.1405 8.06 33.1805 7.77333 33.1805 7.5C33.1805 7.19333 33.1372 6.89 33.0505 6.59C32.9705 6.28333 32.8505 6.00333 32.6905 5.75C32.5305 5.49667 32.3339 5.29333 32.1005 5.14C31.8672 4.98667 31.5972 4.91 31.2905 4.91C30.9639 4.91 30.6805 4.99333 30.4405 5.16C30.2005 5.32 30.0039 5.53333 29.8505 5.8C29.6972 6.06 29.5805 6.34 29.5005 6.64C29.4272 6.94 29.3905 7.22667 29.3905 7.5ZM42.8744 8.64C42.8744 9.09333 42.761 9.50667 42.5344 9.88C42.3144 10.2533 42.0077 10.55 41.6144 10.77C41.2277 10.99 40.7944 11.1 40.3144 11.1C39.7944 11.1 39.3377 10.9767 38.9444 10.73C38.5577 10.4767 38.2544 10.1133 38.0344 9.64C37.821 9.16667 37.7144 8.60333 37.7144 7.95C37.7144 7.04333 37.8244 6.28667 38.0444 5.68C38.271 5.07333 38.5877 4.61667 38.9944 4.31C39.401 4.00333 39.8777 3.85 40.4244 3.85C40.8777 3.85 41.291 3.95667 41.6644 4.17C42.0444 4.37667 42.351 4.66667 42.5844 5.04L41.9344 5.72C41.781 5.44 41.5677 5.22 41.2944 5.06C41.0277 4.89333 40.731 4.81 40.4044 4.81C40.0777 4.81 39.7877 4.90667 39.5344 5.1C39.2877 5.28667 39.0944 5.56 38.9544 5.92C38.821 6.28 38.751 6.71667 38.7444 7.23C38.8444 7.03 38.9744 6.86 39.1344 6.72C39.301 6.57333 39.4944 6.46 39.7144 6.38C39.9344 6.3 40.1677 6.26 40.4144 6.26C40.881 6.26 41.2977 6.36667 41.6644 6.58C42.0377 6.79333 42.331 7.08 42.5444 7.44C42.7644 7.79333 42.8744 8.19333 42.8744 8.64ZM40.3144 10.16C40.5877 10.16 40.8377 10.0933 41.0644 9.96C41.2977 9.82 41.481 9.63333 41.6144 9.4C41.7544 9.16667 41.8244 8.91333 41.8244 8.64C41.8244 8.36667 41.7544 8.11667 41.6144 7.89C41.481 7.66333 41.301 7.48333 41.0744 7.35C40.8477 7.21 40.5944 7.14 40.3144 7.14C40.0477 7.14 39.7977 7.21 39.5644 7.35C39.331 7.48333 39.1444 7.66333 39.0044 7.89C38.871 8.11667 38.8044 8.36667 38.8044 8.64C38.8044 8.91333 38.8744 9.16667 39.0144 9.4C39.1544 9.62667 39.3377 9.81 39.5644 9.95C39.7977 10.09 40.0477 10.16 40.3144 10.16ZM45.9886 11.1C45.4753 11.1 45.0153 10.9867 44.6086 10.76C44.2086 10.5267 43.8986 10.21 43.6786 9.81L44.3386 9.18C44.5253 9.46667 44.7653 9.69667 45.0586 9.87C45.3519 10.0367 45.6653 10.12 45.9986 10.12C46.2719 10.12 46.5153 10.0633 46.7286 9.95C46.9419 9.83 47.1086 9.66667 47.2286 9.46C47.3553 9.25333 47.4186 9.01333 47.4186 8.74C47.4186 8.47333 47.3586 8.24 47.2386 8.04C47.1253 7.83333 46.9653 7.67333 46.7586 7.56C46.5586 7.44667 46.3319 7.39 46.0786 7.39C45.8253 7.39 45.5853 7.44667 45.3586 7.56C45.1386 7.67333 44.9619 7.83333 44.8286 8.04H43.8486L44.6586 3.9H48.1286V4.91H45.4586L45.0986 6.84C45.2186 6.72 45.3719 6.62333 45.5586 6.55C45.7519 6.47667 45.9719 6.44 46.2186 6.44C46.6653 6.44 47.0619 6.53667 47.4086 6.73C47.7619 6.92333 48.0386 7.19 48.2386 7.53C48.4453 7.87 48.5486 8.26333 48.5486 8.71C48.5486 9.18333 48.4353 9.6 48.2086 9.96C47.9819 10.3133 47.6753 10.5933 47.2886 10.8C46.9086 11 46.4753 11.1 45.9886 11.1ZM51.7134 11.08C51.32 11.08 50.96 11.0233 50.6334 10.91C50.3134 10.7967 50.0434 10.6333 49.8234 10.42C49.6034 10.2067 49.4434 9.96 49.3434 9.68L49.9434 8.96C49.99 9.13333 50.0867 9.30667 50.2334 9.48C50.3867 9.65333 50.5834 9.79333 50.8234 9.9C51.07 10.0067 51.3567 10.06 51.6834 10.06C51.97 10.06 52.2234 10.0167 52.4434 9.93C52.67 9.83667 52.85 9.70667 52.9834 9.54C53.1167 9.37333 53.1834 9.17667 53.1834 8.95C53.1834 8.69667 53.1034 8.48333 52.9434 8.31C52.7834 8.13667 52.5534 8.00667 52.2534 7.92C51.9534 7.83333 51.5934 7.79 51.1734 7.79H50.8334V6.91H51.1734C51.7267 6.91 52.1667 6.82 52.4934 6.64C52.8267 6.46 52.9934 6.19333 52.9934 5.84C52.9934 5.62 52.9334 5.43 52.8134 5.27C52.6934 5.10333 52.5367 4.98 52.3434 4.9C52.15 4.81333 51.9367 4.77 51.7034 4.77C51.3234 4.77 50.9934 4.85667 50.7134 5.03C50.4334 5.20333 50.23 5.41667 50.1034 5.67L49.3834 4.88C49.5234 4.66 49.7167 4.47 49.9634 4.31C50.21 4.15 50.4867 4.02667 50.7934 3.94C51.1067 3.85333 51.4234 3.81 51.7434 3.81C52.21 3.81 52.6267 3.89333 52.9934 4.06C53.36 4.22667 53.6467 4.45667 53.8534 4.75C54.06 5.03667 54.1634 5.36333 54.1634 5.73C54.1634 5.99667 54.1067 6.23667 53.9934 6.45C53.8867 6.66333 53.73 6.84333 53.5234 6.99C53.3234 7.13 53.0834 7.23333 52.8034 7.3C53.1034 7.35333 53.3667 7.46667 53.5934 7.64C53.8267 7.81333 54.0034 8.02667 54.1234 8.28C54.25 8.53333 54.3134 8.81 54.3134 9.11C54.3134 9.52333 54.1934 9.87667 53.9534 10.17C53.72 10.4633 53.4067 10.69 53.0134 10.85C52.62 11.0033 52.1867 11.08 51.7134 11.08Z" fill="#404040"/>
<path d="M86.43 10.01V11H82.66V10.01H84.03V4.95C83.9767 5.03 83.8867 5.12 83.76 5.22C83.64 5.31333 83.5033 5.40667 83.35 5.5C83.1967 5.58667 83.0367 5.66 82.87 5.72C82.71 5.78 82.5633 5.81 82.43 5.81V4.79C82.61 4.79 82.79 4.74333 82.97 4.65C83.1567 4.55667 83.33 4.45 83.49 4.33C83.65 4.20333 83.7767 4.09 83.87 3.99C83.97 3.89 84.0233 3.83667 84.03 3.83H85.16V10.01H86.43ZM89.4184 11.08C89.0251 11.08 88.6651 11.0233 88.3384 10.91C88.0184 10.7967 87.7484 10.6333 87.5284 10.42C87.3084 10.2067 87.1484 9.96 87.0484 9.68L87.6484 8.96C87.6951 9.13333 87.7918 9.30667 87.9384 9.48C88.0918 9.65333 88.2884 9.79333 88.5284 9.9C88.7751 10.0067 89.0618 10.06 89.3884 10.06C89.6751 10.06 89.9284 10.0167 90.1484 9.93C90.3751 9.83667 90.5551 9.70667 90.6884 9.54C90.8218 9.37333 90.8884 9.17667 90.8884 8.95C90.8884 8.69667 90.8084 8.48333 90.6484 8.31C90.4884 8.13667 90.2584 8.00667 89.9584 7.92C89.6584 7.83333 89.2984 7.79 88.8784 7.79H88.5384V6.91H88.8784C89.4318 6.91 89.8718 6.82 90.1984 6.64C90.5318 6.46 90.6984 6.19333 90.6984 5.84C90.6984 5.62 90.6384 5.43 90.5184 5.27C90.3984 5.10333 90.2418 4.98 90.0484 4.9C89.8551 4.81333 89.6418 4.77 89.4084 4.77C89.0284 4.77 88.6984 4.85667 88.4184 5.03C88.1384 5.20333 87.9351 5.41667 87.8084 5.67L87.0884 4.88C87.2284 4.66 87.4218 4.47 87.6684 4.31C87.9151 4.15 88.1918 4.02667 88.4984 3.94C88.8118 3.85333 89.1284 3.81 89.4484 3.81C89.9151 3.81 90.3318 3.89333 90.6984 4.06C91.0651 4.22667 91.3518 4.45667 91.5584 4.75C91.7651 5.03667 91.8684 5.36333 91.8684 5.73C91.8684 5.99667 91.8118 6.23667 91.6984 6.45C91.5918 6.66333 91.4351 6.84333 91.2284 6.99C91.0284 7.13 90.7884 7.23333 90.5084 7.3C90.8084 7.35333 91.0718 7.46667 91.2984 7.64C91.5318 7.81333 91.7084 8.02667 91.8284 8.28C91.9551 8.53333 92.0184 8.81 92.0184 9.11C92.0184 9.52333 91.8984 9.87667 91.6584 10.17C91.4251 10.4633 91.1118 10.69 90.7184 10.85C90.3251 11.0033 89.8918 11.08 89.4184 11.08ZM95.178 11.1C94.6647 11.1 94.2047 10.9867 93.798 10.76C93.398 10.5267 93.088 10.21 92.868 9.81L93.528 9.18C93.7147 9.46667 93.9547 9.69667 94.248 9.87C94.5414 10.0367 94.8547 10.12 95.188 10.12C95.4614 10.12 95.7047 10.0633 95.918 9.95C96.1314 9.83 96.298 9.66667 96.418 9.46C96.5447 9.25333 96.608 9.01333 96.608 8.74C96.608 8.47333 96.548 8.24 96.428 8.04C96.3147 7.83333 96.1547 7.67333 95.948 7.56C95.748 7.44667 95.5214 7.39 95.268 7.39C95.0147 7.39 94.7747 7.44667 94.548 7.56C94.328 7.67333 94.1514 7.83333 94.018 8.04H93.038L93.848 3.9H97.318V4.91H94.648L94.288 6.84C94.408 6.72 94.5614 6.62333 94.748 6.55C94.9414 6.47667 95.1614 6.44 95.408 6.44C95.8547 6.44 96.2514 6.53667 96.598 6.73C96.9514 6.92333 97.228 7.19 97.428 7.53C97.6347 7.87 97.738 8.26333 97.738 8.71C97.738 9.18333 97.6247 9.6 97.398 9.96C97.1714 10.3133 96.8647 10.5933 96.478 10.8C96.098 11 95.6647 11.1 95.178 11.1Z" fill="#404040"/>
<mask id="mask1_1_16686" style="mask-type:alpha" maskUnits="userSpaceOnUse" x="63" y="0" width="15" height="15">
<rect x="63" width="15" height="15" fill="#D9D9D9"/>
</mask>
<g mask="url(#mask1_1_16686)">
<path d="M66.9063 8.59372H71.5938V7.65625H66.9063V8.59372ZM66.9063 6.71872H74.0938V5.78125H66.9063V6.71872ZM66.9063 4.84372H74.0938V3.90625H66.9063V4.84372ZM64.5625 13.149V2.69231C64.5625 2.3766 64.6719 2.10938 64.8907 1.89063C65.1094 1.67188 65.3766 1.5625 65.6923 1.5625H75.3077C75.6234 1.5625 75.8906 1.67188 76.1094 1.89063C76.3281 2.10938 76.4375 2.3766 76.4375 2.69231V9.80766C76.4375 10.1234 76.3281 10.3906 76.1094 10.6093C75.8906 10.8281 75.6234 10.9375 75.3077 10.9375H66.7741L64.5625 13.149ZM66.375 9.99998H75.3077C75.3558 9.99998 75.3998 9.97995 75.4399 9.93989C75.48 9.89982 75.5 9.85574 75.5 9.80766V2.69231C75.5 2.64423 75.48 2.60015 75.4399 2.56008C75.3998 2.52002 75.3558 2.49998 75.3077 2.49998H65.6923C65.6443 2.49998 65.6002 2.52002 65.5601 2.56008C65.52 2.60015 65.5 2.64423 65.5 2.69231V10.8654L66.375 9.99998Z" fill="#404040"/>
</g>
</svg>
