<svg width="15" height="15" viewBox="0 0 15 15" fill="none" xmlns="http://www.w3.org/2000/svg">
<mask id="mask0_1_37341" style="mask-type:alpha" maskUnits="userSpaceOnUse" x="0" y="0" width="15" height="15">
<rect width="15" height="15" fill="#D9D9D9"/>
</mask>
<g mask="url(#mask0_1_37341)">
<path d="M3.90628 8.59372H8.59375V7.65625H3.90628V8.59372ZM3.90628 6.71872H11.0938V5.78125H3.90628V6.71872ZM3.90628 4.84372H11.0938V3.90625H3.90628V4.84372ZM1.56253 13.149V2.69231C1.56253 2.3766 1.67191 2.10938 1.89066 1.89063C2.10941 1.67188 2.37663 1.5625 2.69234 1.5625H12.3077C12.6234 1.5625 12.8906 1.67188 13.1094 1.89063C13.3281 2.10938 13.4375 2.3766 13.4375 2.69231V9.80766C13.4375 10.1234 13.3281 10.3906 13.1094 10.6093C12.8906 10.8281 12.6234 10.9375 12.3077 10.9375H3.77406L1.56253 13.149ZM3.37503 9.99998H12.3077C12.3558 9.99998 12.3998 9.97995 12.4399 9.93989C12.48 9.89982 12.5 9.85574 12.5 9.80766V2.69231C12.5 2.64423 12.48 2.60015 12.4399 2.56008C12.3998 2.52002 12.3558 2.49998 12.3077 2.49998H2.69234C2.64426 2.49998 2.60018 2.52002 2.56011 2.56008C2.52005 2.60015 2.50002 2.64423 2.50002 2.69231V10.8654L3.37503 9.99998Z" fill="#404040"/>
</g>
</svg>
