<svg width="11" height="13" viewBox="0 0 11 13" fill="#000000" xmlns="http://www.w3.org/2000/svg">
<path d="M1.50832 12.4376C1.19261 12.4376 0.925385 12.3282 0.706635 12.1094C0.487885 11.8907 0.37851 11.6235 0.37851 11.3077V2.9424C0.37851 2.62669 0.487885 2.35946 0.706635 2.14071C0.925385 1.92196 1.19261 1.81259 1.50832 1.81259H2.37371V0.490479H3.33523V1.81259H8.07079V0.490479H9.00828V1.81259H9.87367C10.1894 1.81259 10.4566 1.92196 10.6754 2.14071C10.8941 2.35946 11.0035 2.62669 11.0035 2.9424V11.3077C11.0035 11.6235 10.8941 11.8907 10.6754 12.1094C10.4566 12.3282 10.1894 12.4376 9.87367 12.4376H1.50832ZM1.50832 11.5001H9.87367C9.92175 11.5001 9.96583 11.48 10.0059 11.44C10.046 11.3999 10.066 11.3558 10.066 11.3077V5.4424H1.31599V11.3077C1.31599 11.3558 1.33602 11.3999 1.37609 11.44C1.41616 11.48 1.46024 11.5001 1.50832 11.5001ZM1.31599 4.50492H10.066V2.9424C10.066 2.89432 10.046 2.85024 10.0059 2.81017C9.96583 2.7701 9.92175 2.75007 9.87367 2.75007H1.50832C1.46024 2.75007 1.41616 2.7701 1.37609 2.81017C1.33602 2.85024 1.31599 2.89432 1.31599 2.9424V4.50492ZM5.69099 7.79815C5.53795 7.79815 5.40755 7.74427 5.29978 7.63649C5.192 7.52872 5.13812 7.39832 5.13812 7.24528C5.13812 7.09223 5.192 6.96183 5.29978 6.85406C5.40755 6.74629 5.53795 6.6924 5.69099 6.6924C5.84404 6.6924 5.97444 6.74629 6.08221 6.85406C6.18998 6.96183 6.24387 7.09223 6.24387 7.24528C6.24387 7.39832 6.18998 7.52872 6.08221 7.63649C5.97444 7.74427 5.84404 7.79815 5.69099 7.79815ZM3.19099 7.79815C3.03795 7.79815 2.90755 7.74427 2.79978 7.63649C2.692 7.52872 2.63812 7.39832 2.63812 7.24528C2.63812 7.09223 2.692 6.96183 2.79978 6.85406C2.90755 6.74629 3.03795 6.6924 3.19099 6.6924C3.34404 6.6924 3.47444 6.74629 3.58221 6.85406C3.68998 6.96183 3.74387 7.09223 3.74387 7.24528C3.74387 7.39832 3.68998 7.52872 3.58221 7.63649C3.47444 7.74427 3.34404 7.79815 3.19099 7.79815ZM8.19099 7.79815C8.03795 7.79815 7.90755 7.74427 7.79978 7.63649C7.692 7.52872 7.63812 7.39832 7.63812 7.24528C7.63812 7.09223 7.692 6.96183 7.79978 6.85406C7.90755 6.74629 8.03795 6.6924 8.19099 6.6924C8.34404 6.6924 8.47444 6.74629 8.58221 6.85406C8.68998 6.96183 8.74387 7.09223 8.74387 7.24528C8.74387 7.39832 8.68998 7.52872 8.58221 7.63649C8.47444 7.74427 8.34404 7.79815 8.19099 7.79815ZM5.69099 10.2501C5.53795 10.2501 5.40755 10.1962 5.29978 10.0884C5.192 9.98065 5.13812 9.85024 5.13812 9.6972C5.13812 9.54416 5.192 9.41375 5.29978 9.30598C5.40755 9.1982 5.53795 9.14431 5.69099 9.14431C5.84404 9.14431 5.97444 9.1982 6.08221 9.30598C6.18998 9.41375 6.24387 9.54416 6.24387 9.6972C6.24387 9.85024 6.18998 9.98065 6.08221 10.0884C5.97444 10.1962 5.84404 10.2501 5.69099 10.2501ZM3.19099 10.2501C3.03795 10.2501 2.90755 10.1962 2.79978 10.0884C2.692 9.98065 2.63812 9.85024 2.63812 9.6972C2.63812 9.54416 2.692 9.41375 2.79978 9.30598C2.90755 9.1982 3.03795 9.14431 3.19099 9.14431C3.34404 9.14431 3.47444 9.1982 3.58221 9.30598C3.68998 9.41375 3.74387 9.54416 3.74387 9.6972C3.74387 9.85024 3.68998 9.98065 3.58221 10.0884C3.47444 10.1962 3.34404 10.2501 3.19099 10.2501ZM8.19099 10.2501C8.03795 10.2501 7.90755 10.1962 7.79978 10.0884C7.692 9.98065 7.63812 9.85024 7.63812 9.6972C7.63812 9.54416 7.692 9.41375 7.79978 9.30598C7.90755 9.1982 8.03795 9.14431 8.19099 9.14431C8.34404 9.14431 8.47444 9.1982 8.58221 9.30598C8.68998 9.41375 8.74387 9.54416 8.74387 9.6972C8.74387 9.85024 8.68998 9.98065 8.58221 10.0884C8.47444 10.1962 8.34404 10.2501 8.19099 10.2501Z" fill="#000000"/>
</svg>
