<svg width="15" height="15" viewBox="0 0 15 15" fill="none" xmlns="http://www.w3.org/2000/svg">
<mask id="mask0_1_37336" style="mask-type:alpha" maskUnits="userSpaceOnUse" x="0" y="0" width="15" height="15">
<rect width="15" height="15" fill="#FFFFFF"/>
</mask>
<g mask="url(#mask0_1_37336)">
<path d="M0.312531 11.1178V10.3558C0.312531 9.93992 0.529676 9.59838 0.963968 9.33115C1.39826 9.06392 1.96436 8.9303 2.66227 8.9303C2.77765 8.9303 2.89384 8.93391 3.01083 8.94113C3.12782 8.94834 3.2456 8.96236 3.36419 8.9832C3.2424 9.1779 3.15205 9.38002 3.09316 9.58955C3.03427 9.79909 3.00483 10.014 3.00483 10.2344V11.1178H0.312531ZM4.06252 11.1178V10.2584C4.06252 9.96582 4.14465 9.69835 4.30892 9.45604C4.47318 9.21373 4.70996 9.00242 5.01925 8.82213C5.32854 8.64185 5.69392 8.50664 6.11539 8.41649C6.53686 8.32635 6.99759 8.28127 7.49759 8.28127C8.00721 8.28127 8.47275 8.32635 8.89422 8.41649C9.31569 8.50664 9.68107 8.64185 9.99037 8.82213C10.2997 9.00242 10.5348 9.21373 10.6959 9.45604C10.857 9.69835 10.9375 9.96582 10.9375 10.2584V11.1178H4.06252ZM11.9952 11.1178V10.2362C11.9952 10.0011 11.9673 9.77955 11.9116 9.57159C11.856 9.36362 11.7724 9.16749 11.661 8.9832C11.7836 8.96236 11.9008 8.94834 12.0126 8.94113C12.1244 8.93391 12.2348 8.9303 12.3437 8.9303C13.0417 8.9303 13.6068 9.06231 14.039 9.32634C14.4713 9.59036 14.6875 9.93351 14.6875 10.3558V11.1178H11.9952ZM5.04808 10.1803H9.96155V10.1142C9.89744 9.86179 9.63142 9.64945 9.16347 9.47718C8.69552 9.3049 8.14103 9.21876 7.5 9.21876C6.85897 9.21876 6.30448 9.3049 5.83653 9.47718C5.36858 9.64945 5.10576 9.86179 5.04808 10.1142V10.1803ZM2.66067 8.32334C2.36607 8.32334 2.1144 8.2186 1.90567 8.00912C1.69694 7.79964 1.59258 7.54781 1.59258 7.25365C1.59258 6.95558 1.69732 6.70377 1.9068 6.49824C2.11628 6.29271 2.3681 6.18995 2.66227 6.18995C2.96034 6.18995 3.21314 6.29271 3.42067 6.49824C3.6282 6.70377 3.73197 6.95617 3.73197 7.25543C3.73197 7.5459 3.6293 7.7965 3.42397 8.00724C3.21863 8.21797 2.9642 8.32334 2.66067 8.32334ZM12.3437 8.32334C12.0521 8.32334 11.8009 8.21797 11.5901 8.00724C11.3794 7.7965 11.274 7.5459 11.274 7.25543C11.274 6.95617 11.3794 6.70377 11.5901 6.49824C11.8009 6.29271 12.0525 6.18995 12.3449 6.18995C12.6462 6.18995 12.8996 6.29271 13.1051 6.49824C13.3107 6.70377 13.4134 6.95558 13.4134 7.25365C13.4134 7.54781 13.3109 7.79964 13.1059 8.00912C12.9009 8.2186 12.6468 8.32334 12.3437 8.32334ZM7.50212 7.81252C7.052 7.81252 6.66868 7.65477 6.35217 7.33927C6.03567 7.02377 5.87742 6.64066 5.87742 6.18995C5.87742 5.73022 6.03517 5.34486 6.35067 5.03387C6.66617 4.72288 7.04928 4.56738 7.5 4.56738C7.95973 4.56738 8.34509 4.72267 8.65609 5.03326C8.96708 5.34384 9.12258 5.7287 9.12258 6.18784C9.12258 6.63796 8.96729 7.02127 8.6567 7.33777C8.34611 7.65427 7.96125 7.81252 7.50212 7.81252ZM7.503 6.87505C7.69411 6.87505 7.85558 6.80815 7.98739 6.67434C8.11919 6.54051 8.18509 6.37805 8.18509 6.18694C8.18509 5.99584 8.11944 5.83438 7.98814 5.70257C7.85683 5.57076 7.69411 5.50485 7.5 5.50485C7.3109 5.50485 7.14944 5.57051 7.01562 5.70182C6.88181 5.83313 6.81491 5.99584 6.81491 6.18995C6.81491 6.37905 6.88181 6.54051 7.01562 6.67434C7.14944 6.80815 7.31189 6.87505 7.503 6.87505Z" fill="#404040"/>
</g>
</svg>
