<svg width="10" height="12" viewBox="0 0 10 12" fill="none" xmlns="http://www.w3.org/2000/svg">
<path d="M3.54167 10.6667C4.83472 10.6667 5.93576 10.2122 6.84479 9.30321C7.75382 8.39418 8.20833 7.29314 8.20833 6.00008C8.20833 4.70703 7.75382 3.60598 6.84479 2.69696C5.93576 1.78793 4.83472 1.33341 3.54167 1.33341H3.23542C3.13819 1.33341 3.04583 1.34314 2.95833 1.36258C3.5125 2.00425 3.94271 2.72126 4.24896 3.51362C4.55521 4.30598 4.70833 5.1348 4.70833 6.00008C4.70833 6.86536 4.55521 7.69418 4.24896 8.48654C3.94271 9.2789 3.5125 9.99592 2.95833 10.6376C3.04583 10.657 3.13819 10.6667 3.23542 10.6667H3.54167ZM3.54167 11.8334C3.02639 11.8334 2.52326 11.7678 2.03229 11.6365C1.54132 11.5053 1.07222 11.3084 0.625 11.0459C1.52917 10.5209 2.24132 9.81119 2.76146 8.91675C3.2816 8.0223 3.54167 7.05008 3.54167 6.00008C3.54167 4.95008 3.2816 3.97786 2.76146 3.08342C2.24132 2.18897 1.52917 1.47925 0.625 0.954248C1.07222 0.691748 1.54132 0.494873 2.03229 0.363623C2.52326 0.232373 3.02639 0.166748 3.54167 0.166748C4.34861 0.166748 5.10694 0.319873 5.81667 0.626123C6.52639 0.932373 7.14375 1.348 7.66875 1.873C8.19375 2.398 8.60938 3.01536 8.91562 3.72508C9.22188 4.4348 9.375 5.19314 9.375 6.00008C9.375 6.80703 9.22188 7.56536 8.91562 8.27508C8.60938 8.9848 8.19375 9.60217 7.66875 10.1272C7.14375 10.6522 6.52639 11.0678 5.81667 11.374C5.10694 11.6803 4.34861 11.8334 3.54167 11.8334Z" fill="#FFF6B6" fill-opacity="0.6"/>
</svg>
