<svg width="76" height="75" viewBox="0 0 76 75" fill="none" xmlns="http://www.w3.org/2000/svg">
<mask id="mask0_1_37440" style="mask-type:alpha" maskUnits="userSpaceOnUse" x="0" y="0" width="76" height="75">
<rect x="0.888885" y="0.468018" width="74.4167" height="74.4167" fill="#D9D9D9"/>
</mask>
<g mask="url(#mask0_1_37440)">
<path d="M31.1208 50.1981L50.6192 37.6762L31.1208 25.1542V50.1981ZM38.1025 67.1327C34.0284 67.1327 30.1989 66.3596 26.6141 64.8134C23.0292 63.2672 19.9109 61.1688 17.2591 58.5182C14.6073 55.8676 12.5079 52.7506 10.961 49.1674C9.41416 45.5841 8.64072 41.7555 8.64072 37.6814C8.64072 33.6072 9.41382 29.7778 10.96 26.193C12.5063 22.6081 14.6047 19.4898 17.2552 16.838C19.9059 14.1862 23.0228 12.0868 26.6061 10.5399C30.1893 8.99305 34.018 8.2196 38.0921 8.2196C42.1662 8.2196 45.9957 8.99272 49.5805 10.5389C53.1654 12.0851 56.2837 14.1835 58.9354 16.8341C61.5873 19.4848 63.6866 22.6017 65.2335 26.185C66.7804 29.7682 67.5538 33.5969 67.5538 37.671C67.5538 41.7451 66.7807 45.5745 65.2345 49.1594C63.6883 52.7442 61.5899 55.8626 58.9393 58.5143C56.2887 61.1661 53.1717 63.2655 49.5885 64.8124C46.0052 66.3593 42.1766 67.1327 38.1025 67.1327ZM38.0973 62.4817C45.0222 62.4817 50.8877 60.0787 55.6937 55.2726C60.4998 50.4665 62.9029 44.6011 62.9029 37.6762C62.9029 30.7513 60.4998 24.8858 55.6937 20.0797C50.8877 15.2736 45.0222 12.8706 38.0973 12.8706C31.1724 12.8706 25.3069 15.2736 20.5008 20.0797C15.6947 24.8858 13.2917 30.7513 13.2917 37.6762C13.2917 44.6011 15.6947 50.4665 20.5008 55.2726C25.3069 60.0787 31.1724 62.4817 38.0973 62.4817Z" fill="white" fill-opacity="0.8"/>
</g>
</svg>
