<svg width="24" height="24" viewBox="0 0 24 24" fill="none" xmlns="http://www.w3.org/2000/svg">
<g clip-path="url(#clip0_1_50209)">
<path d="M17.6157 8.14435C17.6536 8.15109 17.6921 8.1545 17.7306 8.15452C17.8646 8.15411 17.9954 8.11419 18.1067 8.03975C18.2181 7.96531 18.305 7.85967 18.3565 7.73606C18.4081 7.61245 18.422 7.47638 18.3966 7.34488C18.3711 7.21339 18.3075 7.09233 18.2135 6.99687L17.7788 6.55548C17.7207 6.49641 17.6506 6.45034 17.5733 6.42029C17.4961 6.39024 17.4133 6.3769 17.3305 6.38114C17.2477 6.38538 17.1667 6.40711 17.0929 6.4449C17.0191 6.48268 16.9542 6.53567 16.9023 6.60037L16.7977 6.73103C16.6799 6.87792 16.6204 7.06309 16.6306 7.25109C16.6408 7.4391 16.72 7.61673 16.8531 7.74997C17.0621 7.95484 17.3277 8.09223 17.6157 8.14435ZM17.2271 7.07529L17.2784 7.03244C17.3079 7.00774 17.3456 6.99506 17.3841 6.99692C17.4225 6.99877 17.4589 7.01504 17.4859 7.04247L17.816 7.37762C17.8378 7.39873 17.8519 7.42655 17.8559 7.45662C17.86 7.48669 17.8539 7.51726 17.8386 7.54343C17.8257 7.56461 17.8068 7.58152 17.7844 7.59204C17.7619 7.60256 17.7369 7.60623 17.7123 7.60259C17.5323 7.57046 17.3662 7.48429 17.2363 7.35553C17.2006 7.31813 17.1799 7.26887 17.1782 7.21716C17.1765 7.16546 17.1939 7.11495 17.2271 7.07529Z" fill="white"/>
<path d="M18.3091 1.35323C17.7899 1.73622 17.421 2.28881 17.2665 2.91521C17.2054 3.14692 17.1752 3.3857 17.1767 3.62533V3.62667C17.1769 4.15663 17.3246 4.67607 17.6035 5.12676C17.8823 5.57745 18.2811 5.94157 18.7553 6.17829C19.6393 6.62017 20.5668 6.42839 20.5668 6.42839L20.4477 6.55756C20.4218 6.58387 20.4014 6.61513 20.3878 6.64948C20.3742 6.68383 20.3676 6.72057 20.3685 6.7575C20.3694 6.79444 20.3777 6.83081 20.393 6.86447C20.4082 6.89812 20.4301 6.92836 20.4573 6.95338C20.4845 6.97841 20.5164 6.9977 20.5512 7.01012C20.586 7.02254 20.6229 7.02783 20.6598 7.02568C20.6967 7.02352 20.7328 7.01396 20.7659 6.99757C20.799 6.98118 20.8285 6.95829 20.8525 6.93027L21.9731 5.71347C21.9743 5.71213 21.975 5.71057 21.9762 5.7093C22.262 5.44301 22.49 5.12069 22.6458 4.76243C22.8017 4.40416 22.8821 4.01764 22.8819 3.62695V3.62561C22.8201 2.19867 21.7596 1.3593 21.7596 1.3593C21.7565 1.3569 21.753 1.35549 21.7498 1.35323C21.2549 0.977698 20.6508 0.774414 20.0296 0.774414C19.4084 0.774414 18.8042 0.977698 18.3094 1.35323H18.3091ZM17.7534 3.27824V3.27655C17.8302 2.78011 18.0675 2.32252 18.4291 1.97377L18.8886 2.5526L18.483 3.37142L17.7431 3.3566C17.7464 3.33034 17.7494 3.30415 17.7534 3.27824ZM17.7445 3.9069L18.6467 3.92504H18.6523C18.7036 3.92503 18.7538 3.91071 18.7974 3.88368C18.8409 3.85666 18.8761 3.81801 18.8989 3.77208L19.4594 2.64048C19.4826 2.59369 19.4919 2.54128 19.4864 2.48936C19.4809 2.43744 19.4608 2.38816 19.4283 2.34726L18.8673 1.64053C19.2196 1.43364 19.6207 1.32457 20.0293 1.32457C20.4378 1.32457 20.839 1.43364 21.1913 1.64053L20.6302 2.34726C20.5978 2.38816 20.5777 2.43744 20.5722 2.48936C20.5667 2.54128 20.576 2.59369 20.5992 2.64048L21.1598 3.77201C21.1826 3.81794 21.2177 3.8566 21.2613 3.88363C21.3048 3.91067 21.355 3.92501 21.4063 3.92504H21.4119L22.3141 3.9069C22.2732 4.23825 22.1608 4.55675 21.9847 4.84037C21.8086 5.124 21.573 5.36598 21.2941 5.54956L20.9096 4.73264C20.8874 4.68541 20.8522 4.64548 20.8081 4.61749C20.7641 4.58951 20.7129 4.57463 20.6607 4.5746H19.3976C19.3454 4.57462 19.2943 4.58949 19.2502 4.61747C19.2061 4.64546 19.1709 4.6854 19.1487 4.73264L18.7645 5.54956C18.4856 5.36598 18.25 5.12401 18.0739 4.84038C17.8978 4.55675 17.7854 4.23824 17.7445 3.9069ZM22.3051 3.27655V3.27824C22.3091 3.30415 22.3122 3.33034 22.3151 3.35653L21.5751 3.37135L21.1695 2.55253L21.6291 1.9737C21.9907 2.32247 22.2282 2.78008 22.3051 3.27655ZM19.2565 5.79577L19.5722 5.12519H20.4861L20.8018 5.79577C20.4282 6.02201 19.53 5.94528 19.2565 5.79577Z" fill="white"/>
<path d="M22.3467 7.05176L22.3305 7.05381C21.8908 7.10971 21.155 7.20324 20.4186 7.76569C19.7903 8.24569 19.3135 8.45216 19.0852 8.5327C18.9002 8.60412 18.7345 8.71817 18.6018 8.86559C18.4691 9.01301 18.373 9.18965 18.3213 9.38117C16.5157 10.2051 14.8554 11.4018 14.6735 11.5347C13.1308 12.3967 11.017 13.2699 10.9958 13.2786C10.9945 13.2791 10.9936 13.28 10.9923 13.2805C10.991 13.281 10.9892 13.2815 10.9877 13.2822C10.9829 13.2843 10.5179 13.485 8.90895 13.8108L8.81217 10.4159C9.21561 10.6375 9.65366 10.7892 10.1077 10.8645V12.2079C9.92037 12.2564 9.72966 12.2908 9.53718 12.3111C9.46746 12.3188 9.40333 12.3529 9.35788 12.4063C9.31242 12.4597 9.28908 12.5285 9.29261 12.5986C9.29614 12.6686 9.32629 12.7347 9.37688 12.7833C9.42748 12.8318 9.49471 12.8593 9.56485 12.86C9.57424 12.86 9.58363 12.8595 9.59309 12.8586C9.8894 12.8279 10.1818 12.767 10.4657 12.6768C13.929 11.7008 13.9175 9.23505 13.911 7.90983L13.9105 7.80557C13.9093 7.57781 13.8208 7.3592 13.6631 7.19483C13.5055 7.03046 13.2907 6.93286 13.0632 6.92218C12.8357 6.9115 12.6128 6.98854 12.4404 7.13741C12.268 7.28628 12.1593 7.49563 12.1368 7.72228L12.0858 8.23658C11.8199 8.48442 11.7583 8.88176 11.9142 9.37305C11.9517 9.49115 11.9476 9.60451 11.9041 9.65541C11.7195 9.87313 11.4892 10.0475 11.2295 10.1662C10.9699 10.2849 10.6873 10.3449 10.4018 10.342C10.401 10.342 10.4003 10.342 10.3996 10.342H10.3974C9.57226 10.298 8.79721 9.77414 8.69626 9.70341C8.65603 9.66656 8.53306 9.55517 8.34495 9.39557V8.64352C8.38892 8.64734 8.8349 8.664 9.05789 8.53094C9.44718 8.2987 9.8321 7.83988 9.87262 7.36559C9.94871 6.47463 9.66664 5.3875 9.11768 4.43936C9.17012 3.72345 8.87556 2.44559 7.37958 2.15936C7.23325 2.12534 5.49721 1.75524 4.41551 2.99759C4.38568 3.03191 4.36482 3.07307 4.35478 3.11742C4.34474 3.16176 4.34584 3.2079 4.35798 3.25171C4.39071 3.35211 4.44692 3.44325 4.52196 3.51755C4.17523 3.7752 3.73843 4.26211 3.54862 5.14362C3.50909 5.34599 3.32619 5.91148 2.95956 6.0948C2.92544 6.11188 2.89525 6.13587 2.8709 6.16525C2.84655 6.19462 2.82857 6.22873 2.8181 6.26542C2.80763 6.30212 2.80491 6.34058 2.8101 6.37838C2.81528 6.41618 2.82827 6.45249 2.84824 6.48501C2.87542 6.5292 3.10137 6.86491 3.70462 6.8983C3.69452 7.04717 3.68753 7.23818 3.69368 7.45298C3.69518 7.50483 3.71131 7.55521 3.74019 7.59829C3.76908 7.64138 3.80955 7.67543 3.85695 7.69651C4.15366 7.81252 4.46935 7.87236 4.78793 7.87298H4.7921C4.86511 7.87353 4.93535 7.84504 4.98736 7.7938C5.03937 7.74256 5.0689 7.67275 5.06944 7.59974C5.06998 7.52672 5.0415 7.45649 4.99026 7.40447C4.93901 7.35246 4.86921 7.32294 4.79619 7.3224C4.60898 7.31992 4.42279 7.29432 4.24186 7.24616C4.24258 7.04846 4.25583 6.85101 4.28153 6.65498C4.28794 6.61314 4.28462 6.57038 4.27181 6.53003C4.25901 6.48968 4.23707 6.45283 4.20771 6.42234C4.17834 6.39185 4.14234 6.36854 4.1025 6.35423C4.06266 6.33991 4.02006 6.33498 3.97801 6.33981C3.83796 6.35958 3.69549 6.35362 3.55758 6.32223C3.95993 5.90061 4.08248 5.28063 4.08763 5.25338C4.34626 4.05409 5.13353 3.79221 5.16452 3.7824C5.2225 3.76512 5.27317 3.72924 5.3087 3.68029C5.34424 3.63134 5.36266 3.57205 5.36113 3.51158C5.3596 3.45111 5.33819 3.39282 5.30021 3.34574C5.26224 3.29865 5.20981 3.26539 5.15104 3.25108C5.0962 3.23866 5.04332 3.21876 4.99391 3.19192C5.89038 2.38305 7.24363 2.69202 7.25754 2.69534C7.26205 2.69647 7.26657 2.69738 7.27116 2.6983C8.35059 2.90223 8.54238 3.74802 8.56695 4.19265C8.15344 4.16647 7.41862 4.19484 6.81954 4.61957C6.40554 4.91308 6.12989 5.34 5.99796 5.89108C5.71356 5.88324 5.37255 5.98284 5.20921 6.37383C5.15197 6.51212 5.12874 6.66212 5.14146 6.81124C5.15419 6.96036 5.2025 7.10425 5.28233 7.23084C5.37214 7.37628 5.49814 7.49594 5.64802 7.57813C5.79789 7.66032 5.96653 7.70223 6.13744 7.69976V8.09647C5.49522 8.03134 4.85089 8.19812 4.32092 8.56665C3.28328 9.29668 2.79198 9.67489 2.76184 9.69811L1.09977 10.9347C0.936394 11.0558 0.802004 11.2117 0.706337 11.3912C0.610669 11.5707 0.55612 11.7692 0.54664 11.9723L0.362405 15.7898C0.353693 15.9593 0.399555 16.1271 0.493254 16.2686C0.586953 16.4101 0.723553 16.5178 0.882993 16.5759C0.882993 16.5759 1.23685 16.6882 1.32961 16.6882C1.52553 16.6876 1.71441 16.6151 1.86026 16.4843C2.00612 16.3534 2.09876 16.1736 2.12055 15.9788L2.17335 15.5032L2.36909 15.3338C2.53826 15.1879 2.64291 14.981 2.66026 14.7582L2.67368 14.5907C2.68679 14.4338 2.65593 14.2765 2.58456 14.1362C2.51319 13.996 2.40413 13.8784 2.26963 13.7967L2.36055 13.1294C2.37471 13.0241 2.41495 12.9241 2.47761 12.8383C2.54027 12.7526 2.62336 12.6838 2.71935 12.6383L4.25993 11.9055L4.80657 11.7688C4.80841 11.7684 4.80996 11.7675 4.81172 11.767C4.81455 11.7663 4.81737 11.7659 4.82026 11.7651L5.78337 11.4709C5.91699 11.4303 6.05778 11.419 6.19617 11.4376C6.26719 11.4448 6.33823 11.4242 6.39432 11.38C6.45041 11.3359 6.48714 11.2717 6.49679 11.2009C6.50643 11.1302 6.48822 11.0585 6.446 11.0009C6.40379 10.9434 6.34086 10.9044 6.2705 10.8924C6.05328 10.8632 5.8323 10.881 5.62257 10.9446L4.66589 11.2371L4.28125 11.3332L3.30841 9.97496C3.54593 9.79792 3.98542 9.47541 4.63758 9.01651C5.48281 8.42167 6.40843 8.68228 6.58271 8.73952C7.16446 9.13989 7.72157 9.57493 8.25099 10.0423L8.36168 13.9286C8.16428 13.9829 7.97187 14.0539 7.78652 14.1408V12.9408C7.78652 12.8678 7.75752 12.7978 7.70589 12.7461C7.65426 12.6945 7.58424 12.6655 7.51123 12.6655H7.13005V11.9547H7.51123C7.58424 11.9547 7.65426 11.9257 7.70589 11.874C7.75752 11.8224 7.78652 11.7524 7.78652 11.6794V10.31C7.78652 10.237 7.75752 10.1669 7.70589 10.1153C7.65426 10.0637 7.58424 10.0347 7.51123 10.0347C7.43822 10.0347 7.36819 10.0637 7.31657 10.1153C7.26494 10.1669 7.23594 10.237 7.23594 10.31V11.4041H6.85476C6.78175 11.4041 6.71172 11.4331 6.6601 11.4847C6.60847 11.5363 6.57946 11.6064 6.57946 11.6794V12.9405C6.57946 13.0135 6.60847 13.0835 6.6601 13.1352C6.71172 13.1868 6.78175 13.2158 6.85476 13.2158H7.23594V14.4491C6.17295 15.1484 5.46205 16.2213 5.24316 16.5808C5.16004 16.3784 5.1294 16.1583 5.15408 15.9409C5.15669 15.9256 5.15802 15.91 5.15803 15.8944V13.3271C5.15803 13.058 5.14836 12.7806 5.12937 12.5024C5.12815 12.4654 5.11949 12.4291 5.10393 12.3956C5.08836 12.362 5.0662 12.332 5.03877 12.3072C5.01134 12.2824 4.9792 12.2634 4.94427 12.2513C4.90933 12.2392 4.87232 12.2343 4.83544 12.2368C4.79856 12.2394 4.76256 12.2493 4.7296 12.266C4.69664 12.2828 4.66738 12.306 4.64358 12.3342C4.61978 12.3625 4.60192 12.3953 4.59107 12.4307C4.58021 12.466 4.57659 12.5032 4.58041 12.5399C4.59855 12.8056 4.60779 13.0705 4.60779 13.3271V15.8753C4.58022 16.1226 4.60286 16.3729 4.67434 16.6112C4.74581 16.8495 4.86467 17.071 5.02377 17.2623C4.90425 17.9856 5.00842 18.7281 5.32236 19.3906C5.60154 19.9778 6.04328 20.9859 6.14041 21.2086C6.15318 21.4219 6.20803 22.2683 6.31405 22.9901C6.32366 23.0554 6.35639 23.115 6.40628 23.1582C6.45618 23.2013 6.51991 23.2252 6.58589 23.2253C6.5994 23.2253 6.6129 23.2243 6.62626 23.2223C6.69843 23.2117 6.76342 23.1728 6.80695 23.1143C6.85048 23.0557 6.869 22.9823 6.85843 22.9101C6.76575 22.2791 6.7121 21.5266 6.69403 21.2436C7.28697 20.6523 8.64092 20.5405 9.35429 20.5484C9.41838 21.5192 9.32951 22.5116 9.19645 22.8492C9.1817 22.8831 9.17392 22.9196 9.17359 22.9566C9.17325 22.9935 9.18036 23.0302 9.1945 23.0643C9.20863 23.0985 9.2295 23.1294 9.25585 23.1554C9.28221 23.1813 9.31351 23.2016 9.3479 23.2152C9.38229 23.2287 9.41906 23.2352 9.45601 23.2343C9.49296 23.2333 9.52934 23.2249 9.56298 23.2096C9.59662 23.1943 9.62682 23.1723 9.6518 23.1451C9.67678 23.1178 9.69601 23.0858 9.70836 23.051C9.90226 22.5591 9.98069 21.3125 9.88405 20.2672C9.87156 19.6273 9.8753 19.1817 10.0264 18.8435C10.2008 18.4606 10.4923 18.143 10.8588 17.9365C11.8156 17.3836 12.2776 16.8949 12.3495 16.8153C13.9393 15.285 15.4716 14.0173 15.6329 13.8845C16.8922 13.1429 18.055 12.2486 19.0949 11.2218C19.2243 11.2544 19.3561 11.2763 19.4891 11.2871C19.9287 11.2871 20.316 11.0723 20.4426 10.9938C20.6287 10.8689 20.8003 10.7236 20.9543 10.5608C21.0884 10.4204 21.4256 10.1584 22.1736 9.98244C22.9571 9.79814 23.3344 9.1531 23.5501 8.68397C23.7321 8.28776 23.6083 7.81651 23.4049 7.5252C23.2887 7.35697 23.1286 7.22386 22.942 7.14038C22.7554 7.05689 22.5495 7.02624 22.3467 7.05176ZM12.3215 10.0134C12.4948 9.81176 12.5375 9.51748 12.4386 9.20618C12.384 9.03416 12.3193 8.72774 12.4993 8.60929C12.5336 8.58676 12.5624 8.55686 12.5836 8.52179C12.6048 8.48672 12.6179 8.44735 12.622 8.40656L12.6844 7.77656C12.693 7.69032 12.7343 7.61067 12.7999 7.55398C12.8654 7.49728 12.9502 7.46786 13.0368 7.47177C13.1234 7.47568 13.2051 7.51261 13.2653 7.57497C13.3255 7.63734 13.3595 7.72039 13.3603 7.80705C13.3603 7.80705 13.8131 11.1959 10.6579 12.0414V10.8812C11.3037 10.8176 11.8998 10.5066 12.3215 10.0134ZM3.75128 11.5383L2.48302 12.1417C2.30441 12.2263 2.14977 12.3541 2.03317 12.5137C1.91656 12.6733 1.84168 12.8594 1.81532 13.0553L1.69991 13.9023C1.69267 13.9557 1.70121 14.01 1.7245 14.0585C1.74778 14.107 1.78478 14.1477 1.83092 14.1754L1.97986 14.2647C2.02812 14.2935 2.06733 14.3352 2.09302 14.3851C2.11871 14.435 2.12984 14.4912 2.12513 14.5471L2.11172 14.7147C2.10558 14.7935 2.06856 14.8666 2.00873 14.9183L1.73161 15.1583C1.67929 15.2036 1.646 15.267 1.63836 15.3359L1.57363 15.9185C1.5696 15.9557 1.55712 15.9915 1.53712 16.0231C1.51713 16.0547 1.49016 16.0814 1.45829 16.101C1.39335 16.1411 1.07309 16.0599 1.07309 16.0599C1.02375 16.0419 0.981472 16.0086 0.952468 15.9648C0.923463 15.921 0.909257 15.8691 0.911935 15.8166L1.09624 11.9992C1.10189 11.8773 1.13459 11.7581 1.19197 11.6504C1.24935 11.5426 1.32998 11.449 1.42801 11.3763L2.86801 10.3051L3.75128 11.5383ZM5.74843 6.93882C5.71392 6.88751 5.69293 6.82831 5.68742 6.76672C5.6819 6.70513 5.69203 6.64314 5.71688 6.58651C5.80539 6.37475 6.07906 6.44929 6.13102 6.4656C6.16919 6.47829 6.20968 6.48247 6.24965 6.47784C6.28961 6.4732 6.32807 6.45986 6.36232 6.43876C6.39657 6.41765 6.42578 6.3893 6.4479 6.35569C6.47001 6.32208 6.48449 6.28404 6.49031 6.24423C6.56725 5.71552 6.78424 5.32065 7.13514 5.07077C7.66829 4.69101 8.38554 4.72362 8.66499 4.75425C8.79676 4.98754 8.91121 5.23019 9.00742 5.48025L8.89596 5.51505C8.83335 5.53482 8.77987 5.57631 8.74516 5.63204C8.71046 5.68777 8.69681 5.75407 8.70668 5.81897C8.71656 5.88388 8.7493 5.94312 8.79901 5.98601C8.84872 6.0289 8.91212 6.05261 8.97777 6.05287C9.00488 6.05287 9.17923 6.00345 9.17923 6.00345C9.30255 6.43038 9.35161 6.87532 9.32429 7.31887C9.30121 7.58964 9.07017 7.92649 8.84033 8.02552C8.7797 8.05164 8.34106 8.17637 7.95029 7.95367C7.56248 7.73387 7.20845 7.45923 6.89916 7.13823C6.87335 7.10973 6.84186 7.08696 6.80671 7.07137C6.77156 7.05578 6.73354 7.04773 6.69509 7.04774C6.66445 7.04767 6.03057 7.32176 5.74843 6.93882ZM6.68768 8.19635V7.70223C6.88582 7.88576 7.75412 8.47305 7.79457 8.49232V8.94684C7.52605 8.73656 7.04775 8.33901 6.68768 8.19663V8.19635ZM11.9606 16.4252C11.9577 16.428 11.9557 16.4313 11.9529 16.4342C11.9502 16.4371 11.9471 16.4391 11.9445 16.442C11.9404 16.4468 11.5194 16.9187 10.5832 17.4596C10.1164 17.7241 9.74562 18.1301 9.52441 18.619C9.35351 19.0014 9.32556 19.4285 9.33015 19.9987C8.72259 19.994 7.33822 20.0607 6.50923 20.6787C6.32873 20.2693 6.02923 19.5956 5.81965 19.154C5.49607 18.4639 5.44072 17.6782 5.66436 16.9495C5.78789 16.7377 6.99396 14.7444 8.70241 14.4122C9.68803 14.2206 10.3129 14.0647 10.693 13.956C10.5792 14.5163 10.5347 15.425 11.1377 16.2126C11.1831 16.2676 11.248 16.3029 11.3188 16.311C11.3897 16.3191 11.4609 16.2994 11.5175 16.256C11.5741 16.2127 11.6117 16.1491 11.6223 16.0786C11.633 16.0081 11.6159 15.9362 11.5746 15.878C10.9595 15.0748 11.2154 14.0583 11.3188 13.7392C11.7383 13.5627 13.2529 12.9155 14.5498 12.2275C14.5819 12.6228 14.6985 13.1842 15.0697 13.6364C14.5607 14.0636 13.2792 15.1559 11.9609 16.4255L11.9606 16.4252ZM15.0899 11.9127C15.4666 11.6451 16.8093 10.7169 18.2687 10.0131C18.2709 10.2578 18.3431 10.6449 18.6351 10.9017C17.6911 11.8219 16.6446 12.6307 15.5161 13.3121C15.1185 12.849 15.0856 12.1808 15.0902 11.913L15.0899 11.9127ZM23.0497 8.45385C22.8682 8.84915 22.5902 9.31877 22.0474 9.44647C21.2056 9.64461 20.7719 9.9547 20.5564 10.1802C20.4342 10.3092 20.2988 10.425 20.1524 10.5257C19.9382 10.6585 19.623 10.8019 19.3611 10.6909C18.9737 10.5269 18.8458 10.1393 18.821 9.996C18.7582 9.63141 18.9082 9.17844 19.2681 9.05145C19.527 8.96011 20.0641 8.72844 20.7523 8.20291C21.3711 7.73032 21.9901 7.65162 22.3997 7.59952L22.4159 7.59741C22.5192 7.58482 22.6239 7.60077 22.7186 7.64354C22.8134 7.6863 22.8947 7.75423 22.9535 7.83995C23.0839 8.02644 23.1253 8.29037 23.05 8.45407L23.0497 8.45385Z" fill="white"/>
<path d="M16.0306 4.89722C15.9576 4.89722 15.8876 4.92622 15.8359 4.97785C15.7843 5.02948 15.7553 5.0995 15.7553 5.17251C15.7553 5.24552 15.7843 5.31555 15.8359 5.36717C15.8876 5.4188 15.9576 5.44781 16.0306 5.44781H16.2424C16.3154 5.44781 16.3854 5.4188 16.437 5.36717C16.4887 5.31555 16.5177 5.24552 16.5177 5.17251C16.5177 5.0995 16.4887 5.02948 16.437 4.97785C16.3854 4.92622 16.3154 4.89722 16.2424 4.89722H16.0306Z" fill="white"/>
<path d="M21.905 11.6247C21.905 11.5516 21.876 11.4816 21.8244 11.43C21.7728 11.3784 21.7027 11.3494 21.6297 11.3494C21.5567 11.3494 21.4867 11.3784 21.4351 11.43C21.3834 11.4816 21.3544 11.5516 21.3544 11.6247V11.7671C21.3544 11.8401 21.3834 11.9101 21.4351 11.9618C21.4867 12.0134 21.5567 12.0424 21.6297 12.0424C21.7027 12.0424 21.7728 12.0134 21.8244 11.9618C21.876 11.9101 21.905 11.8401 21.905 11.7671V11.6247Z" fill="white"/>
<path d="M8.01444 18.4078C6.80258 18.3872 6.51317 17.8102 6.49771 17.7774C6.46745 17.7128 6.41334 17.6625 6.34675 17.637C6.28016 17.6116 6.20629 17.613 6.14069 17.6409C6.07508 17.6688 6.02286 17.721 5.99502 17.7867C5.96717 17.8523 5.96587 17.9261 5.99138 17.9927C6.00733 18.031 6.39987 18.9308 8.00512 18.958H8.00992C8.08107 18.9559 8.14863 18.9262 8.19841 18.8754C8.24819 18.8245 8.27632 18.7563 8.27691 18.6851C8.27749 18.6139 8.25048 18.5453 8.20154 18.4936C8.15261 18.4419 8.08555 18.4112 8.01444 18.4078Z" fill="white"/>
<path d="M7.73034 6.26323H7.95672C8.02973 6.26323 8.09975 6.23423 8.15138 6.1826C8.20301 6.13098 8.23201 6.06095 8.23201 5.98794C8.23201 5.91493 8.20301 5.84491 8.15138 5.79328C8.09975 5.74165 8.02973 5.71265 7.95672 5.71265H7.73034C7.65733 5.71265 7.58731 5.74165 7.53568 5.79328C7.48405 5.84491 7.45505 5.91493 7.45505 5.98794C7.45505 6.06095 7.48405 6.13098 7.53568 6.1826C7.58731 6.23423 7.65733 6.26323 7.73034 6.26323Z" fill="white"/>
<path d="M19.6365 10.1409C19.7884 10.1409 19.9116 10.0177 19.9116 9.86573C19.9116 9.71377 19.7884 9.59058 19.6365 9.59058C19.4845 9.59058 19.3613 9.71377 19.3613 9.86573C19.3613 10.0177 19.4845 10.1409 19.6365 10.1409Z" fill="white"/>
<path d="M20.2595 9.28224C20.4114 9.28224 20.5346 9.15905 20.5346 9.00709C20.5346 8.85512 20.4114 8.73193 20.2595 8.73193C20.1075 8.73193 19.9843 8.85512 19.9843 9.00709C19.9843 9.15905 20.1075 9.28224 20.2595 9.28224Z" fill="white"/>
<path d="M20.6502 9.86574C20.8021 9.86574 20.9253 9.74255 20.9253 9.59058C20.9253 9.43862 20.8021 9.31543 20.6502 9.31543C20.4982 9.31543 20.375 9.43862 20.375 9.59058C20.375 9.74255 20.4982 9.86574 20.6502 9.86574Z" fill="white"/>
<path d="M21.2232 9.14577C21.3752 9.14577 21.4984 9.02257 21.4984 8.87061C21.4984 8.71865 21.3752 8.59546 21.2232 8.59546C21.0712 8.59546 20.9481 8.71865 20.9481 8.87061C20.9481 9.02257 21.0712 9.14577 21.2232 9.14577Z" fill="white"/>
<path d="M21.7949 8.4297C21.9469 8.4297 22.0701 8.30651 22.0701 8.15455C22.0701 8.00258 21.9469 7.87939 21.7949 7.87939C21.6429 7.87939 21.5197 8.00258 21.5197 8.15455C21.5197 8.30651 21.6429 8.4297 21.7949 8.4297Z" fill="white"/>
<path d="M22.2081 9.084C22.3601 9.084 22.4833 8.96081 22.4833 8.80884C22.4833 8.65688 22.3601 8.53369 22.2081 8.53369C22.0561 8.53369 21.933 8.65688 21.933 8.80884C21.933 8.96081 22.0561 9.084 22.2081 9.084Z" fill="white"/>
</g>
<defs>
<clipPath id="clip0_1_50209">
<rect width="24" height="24" fill="white"/>
</clipPath>
</defs>
</svg>
