<svg width="24" height="24" viewBox="0 0 24 24" fill="none" xmlns="http://www.w3.org/2000/svg">
<mask id="mask0_1_50225" style="mask-type:alpha" maskUnits="userSpaceOnUse" x="0" y="0" width="24" height="24">
<rect width="24" height="24" fill="#D9D9D9"/>
</mask>
<g mask="url(#mask0_1_50225)">
<path d="M15.2885 14.8462C15.05 14.8462 14.8494 14.7648 14.6866 14.602C14.5238 14.4392 14.4424 14.2385 14.4424 14.0001V10.0001C14.4424 9.76162 14.5238 9.56098 14.6866 9.39815C14.8494 9.23533 15.05 9.15392 15.2885 9.15392H17.7885C18.027 9.15392 18.2276 9.23533 18.3904 9.39815C18.5532 9.56098 18.6347 9.76162 18.6347 10.0001V14.0001C18.6347 14.2385 18.5532 14.4392 18.3904 14.602C18.2276 14.7648 18.027 14.8462 17.7885 14.8462H15.2885ZM15.6347 13.6539H17.4424V10.3462H15.6347V13.6539ZM5.36547 14.8462V12.4424C5.36547 12.2039 5.45329 11.9969 5.62894 11.8212C5.80457 11.6456 6.01162 11.5578 6.25009 11.5578H8.36547V10.3462H5.36547V9.15392H8.71162C8.95008 9.15392 9.15072 9.23533 9.31354 9.39815C9.47636 9.56098 9.55777 9.76162 9.55777 10.0001V11.5578C9.55777 11.7962 9.46994 12.0033 9.29429 12.1789C9.11866 12.3546 8.91162 12.4424 8.67317 12.4424H6.55777V13.6539H9.55777V14.8462H5.36547ZM11.4039 10.9327V9.74048H12.5962V10.9327H11.4039ZM11.4039 14.3174V13.1251H12.5962V14.3174H11.4039ZM4.28854 19.3943C3.78342 19.3943 3.35587 19.2193 3.00587 18.8693C2.65587 18.5193 2.48087 18.0917 2.48087 17.5866V6.47128C2.48087 5.96614 2.65587 5.53857 3.00587 5.18857C3.35587 4.83857 3.78342 4.66357 4.28854 4.66357H7.25009V2.66357H8.75004V4.66357H15.2501V2.66357H16.75V4.66357H19.7116C20.2167 4.66357 20.6443 4.83857 20.9943 5.18857C21.3443 5.53857 21.5193 5.96614 21.5193 6.47128V17.5866C21.5193 18.0917 21.3443 18.5193 20.9943 18.8693C20.6443 19.2193 20.2167 19.3943 19.7116 19.3943H4.28854ZM4.28854 17.8943H11.4039V16.5097H12.5962V17.8943H19.7116C19.7885 17.8943 19.859 17.8622 19.9231 17.7981C19.9872 17.734 20.0193 17.6635 20.0193 17.5866V6.47128C20.0193 6.39434 19.9872 6.32382 19.9231 6.2597C19.859 6.1956 19.7885 6.16355 19.7116 6.16355H12.5962V7.54815H11.4039V6.16355H4.28854C4.21162 6.16355 4.14111 6.1956 4.07699 6.2597C4.01289 6.32382 3.98084 6.39434 3.98084 6.47128V17.5866C3.98084 17.6635 4.01289 17.734 4.07699 17.7981C4.14111 17.8622 4.21162 17.8943 4.28854 17.8943Z" fill="white"/>
</g>
</svg>
