<svg width="24" height="24" viewBox="0 0 24 24" fill="none" xmlns="http://www.w3.org/2000/svg">
<mask id="mask0_1_50235" style="mask-type:alpha" maskUnits="userSpaceOnUse" x="0" y="0" width="24" height="24">
<rect width="24" height="24" fill="#D9D9D9"/>
</mask>
<g mask="url(#mask0_1_50235)">
<path d="M19.5424 20.577L13.2616 14.2962C12.7616 14.7091 12.1866 15.0321 11.5366 15.2655C10.8866 15.4988 10.2141 15.6155 9.51928 15.6155C7.81011 15.6155 6.3636 15.0237 5.17973 13.8401C3.99586 12.6566 3.40393 11.2104 3.40393 9.50169C3.40393 7.79296 3.99571 6.34628 5.17928 5.16167C6.36285 3.97707 7.809 3.38477 9.51773 3.38477C11.2264 3.38477 12.6731 3.9767 13.8577 5.16057C15.0423 6.34443 15.6347 7.79095 15.6347 9.50012C15.6347 10.2142 15.5148 10.8963 15.275 11.5463C15.0353 12.1963 14.7154 12.7617 14.3154 13.2424L20.5962 19.5232L19.5424 20.577ZM9.51928 14.1155C10.8077 14.1155 11.8991 13.6684 12.7933 12.7742C13.6876 11.8799 14.1347 10.7886 14.1347 9.50012C14.1347 8.21165 13.6876 7.1203 12.7933 6.22607C11.8991 5.33183 10.8077 4.88472 9.51928 4.88472C8.23081 4.88472 7.13946 5.33183 6.24523 6.22607C5.35101 7.1203 4.90391 8.21165 4.90391 9.50012C4.90391 10.7886 5.35101 11.8799 6.24523 12.7742C7.13946 13.6684 8.23081 14.1155 9.51928 14.1155Z" fill="white"/>
</g>
</svg>
