<svg width="24" height="24" viewBox="0 0 24 24" fill="none" xmlns="http://www.w3.org/2000/svg">
<mask id="mask0_1_50197" style="mask-type:alpha" maskUnits="userSpaceOnUse" x="0" y="0" width="24" height="24">
<rect width="24" height="24" fill="#D9D9D9"/>
</mask>
<g mask="url(#mask0_1_50197)">
<path d="M5.28078 18.7192C4.41924 17.8474 3.7404 16.8378 3.24425 15.6903C2.74808 14.5429 2.5 13.3128 2.5 12C2.5 10.6769 2.74808 9.44165 3.24425 8.29421C3.7404 7.14678 4.41924 6.1423 5.28078 5.28076L6.34998 6.34996C5.61664 7.0833 5.04164 7.9333 4.62498 8.89996C4.20831 9.86663 3.99998 10.9 3.99998 12C3.99998 13.1166 4.20831 14.1583 4.62498 15.125C5.04164 16.0916 5.61664 16.9333 6.34998 17.65L5.28078 18.7192ZM8.10578 15.8942C7.61091 15.389 7.21957 14.8044 6.93175 14.1403C6.64392 13.4762 6.5 12.7628 6.5 12C6.5 11.2269 6.64392 10.5083 6.93175 9.84421C7.21957 9.18011 7.61091 8.60063 8.10578 8.10576L9.17498 9.17496C8.80831 9.54163 8.52081 9.96663 8.31248 10.45C8.10414 10.9333 7.99998 11.45 7.99998 12C7.99998 12.55 8.10414 13.0666 8.31248 13.55C8.52081 14.0333 8.80831 14.4583 9.17498 14.825L8.10578 15.8942ZM12 13.4999C11.591 13.4999 11.2388 13.3522 10.9433 13.0567C10.6478 12.7612 10.5 12.4089 10.5 12C10.5 11.591 10.6478 11.2388 10.9433 10.9433C11.2388 10.6477 11.591 10.5 12 10.5C12.4089 10.5 12.7612 10.6477 13.0567 10.9433C13.3522 11.2388 13.5 11.591 13.5 12C13.5 12.4089 13.3522 12.7612 13.0567 13.0567C12.7612 13.3522 12.4089 13.4999 12 13.4999ZM15.8942 15.8942L14.825 14.825C15.1916 14.4583 15.4791 14.0333 15.6875 13.55C15.8958 13.0666 16 12.55 16 12C16 11.45 15.8958 10.9333 15.6875 10.45C15.4791 9.96663 15.1916 9.54163 14.825 9.17496L15.8942 8.10576C16.389 8.60063 16.7804 9.18011 17.0682 9.84421C17.356 10.5083 17.5 11.2269 17.5 12C17.5 12.7628 17.356 13.4762 17.0682 14.1403C16.7804 14.8044 16.389 15.389 15.8942 15.8942ZM18.7192 18.7192L17.65 17.65C18.3833 16.9166 18.9583 16.0666 19.375 15.1C19.7916 14.1333 20 13.1 20 12C20 10.8897 19.7916 9.85125 19.375 8.88459C18.9583 7.91792 18.3833 7.07305 17.65 6.34996L18.7192 5.28076C19.5807 6.1423 20.2596 7.14678 20.7557 8.29421C21.2519 9.44165 21.5 10.6769 21.5 12C21.5 13.3128 21.2519 14.5429 20.7557 15.6903C20.2596 16.8378 19.5807 17.8474 18.7192 18.7192Z" fill="white"/>
</g>
</svg>
