<svg width="18" height="18" viewBox="0 0 14 14" fill="none" xmlns="http://www.w3.org/2000/svg">
  <mask id="mask0_1_50189" style="mask-type:alpha" maskUnits="userSpaceOnUse" x="0" y="0" width="18" height="18">
    <rect width="18" height="18" fill="white"/>
  </mask>
  <g mask="url(#mask0_1_50189)">
    <path d="M7.99999 14.5918L6.04583 12.6668H3.33333V9.95428L1.40833 8.00011L3.33333 6.04595V3.33345H6.04583L7.99999 1.40845L9.95416 3.33345H12.6667V6.04595L14.5917 8.00011L12.6667 9.95428V12.6668H9.95416L7.99999 14.5918ZM7.99999 10.9168C8.80694 10.9168 9.49478 10.6324 10.0635 10.0637C10.6323 9.495 10.9167 8.80706 10.9167 8.00011C10.9167 7.19317 10.6323 6.50532 10.0635 5.93657C9.49478 5.36782 8.80694 5.08345 7.99999 5.08345C7.19305 5.08345 6.5052 5.36782 5.93645 5.93657C5.3677 6.50532 5.08333 7.19317 5.08333 8.00011C5.08333 8.80706 5.3677 9.4949 5.93645 10.0637C6.5052 10.6324 7.19305 10.9168 7.99999 10.9168ZM7.99999 12.9584L9.45833 11.5001H11.5V9.45845L12.9583 8.00011L11.5 6.54178V4.50011H9.45833L7.99999 3.04178L6.54166 4.50011H4.5V6.54178L3.04166 8.00011L4.5 9.45845V11.5001H6.54166L7.99999 12.9584Z" fill="white"/>
  </g>
</svg>
